<svg width="504" height="222" viewBox="0 0 504 222" fill="none" xmlns="http://www.w3.org/2000/svg">
<path fill-rule="evenodd" clip-rule="evenodd" d="M238.223 0C277.281 0 311.192 16.204 328.198 39.9676C343.374 31.8201 362.076 27.0114 382.305 27.0114C433.03 27.0114 474.15 57.245 474.15 94.5399C474.15 103.701 471.669 112.436 467.174 120.401C488.487 126.864 504 146.664 504 170.087C504 198.758 480.758 222 452.087 222H51.9126C23.242 222 0 198.758 0 170.087C0 146.945 15.1436 127.339 36.0621 120.639C32.0524 113.211 29.8497 105.119 29.8497 96.6502C29.8497 60.5207 69.9421 31.2319 119.399 31.2319C130.763 31.2319 141.633 32.7784 151.635 35.5989C169.517 14.2402 201.608 0 238.223 0Z" fill="#E6E6E6"/>
<path d="M103.491 115.24C102.179 115.24 100.971 115.032 99.8667 114.616C98.7787 114.184 97.8267 113.584 97.0107 112.816C96.1947 112.032 95.5627 111.112 95.1147 110.056C94.6667 109 94.4427 107.848 94.4427 106.6C94.4427 105.352 94.6667 104.2 95.1147 103.144C95.5627 102.088 96.1947 101.176 97.0107 100.408C97.8427 99.624 98.8107 99.024 99.9147 98.608C101.019 98.176 102.227 97.96 103.539 97.96C104.963 97.96 106.243 98.192 107.379 98.656C108.531 99.12 109.499 99.8 110.283 100.696L108.315 102.616C107.659 101.96 106.947 101.48 106.179 101.176C105.427 100.856 104.595 100.696 103.683 100.696C102.803 100.696 101.987 100.84 101.235 101.128C100.483 101.416 99.8347 101.824 99.2907 102.352C98.7467 102.88 98.3227 103.504 98.0187 104.224C97.7307 104.944 97.5867 105.736 97.5867 106.6C97.5867 107.448 97.7307 108.232 98.0187 108.952C98.3227 109.672 98.7467 110.304 99.2907 110.848C99.8347 111.376 100.475 111.784 101.211 112.072C101.947 112.36 102.763 112.504 103.659 112.504C104.491 112.504 105.291 112.376 106.059 112.12C106.843 111.848 107.587 111.4 108.291 110.776L110.067 113.104C109.187 113.808 108.163 114.344 106.995 114.712C105.843 115.064 104.675 115.24 103.491 115.24ZM107.115 112.696V106.408H110.067V113.104L107.115 112.696ZM117.062 105.184H125.414V107.752H117.062V105.184ZM117.302 112.384H126.782V115H114.182V98.2H126.446V100.816H117.302V112.384ZM133.668 115V100.84H128.1V98.2H142.356V100.84H136.788V115H133.668ZM151.33 115V98.2H158.242C159.73 98.2 161.002 98.44 162.058 98.92C163.13 99.4 163.954 100.088 164.53 100.984C165.106 101.88 165.394 102.944 165.394 104.176C165.394 105.408 165.106 106.472 164.53 107.368C163.954 108.264 163.13 108.952 162.058 109.432C161.002 109.912 159.73 110.152 158.242 110.152H153.058L154.45 108.688V115H151.33ZM154.45 109.024L153.058 107.512H158.098C159.474 107.512 160.506 107.224 161.194 106.648C161.898 106.056 162.25 105.232 162.25 104.176C162.25 103.104 161.898 102.28 161.194 101.704C160.506 101.128 159.474 100.84 158.098 100.84H153.058L154.45 99.304V109.024ZM165.29 115L172.85 98.2H175.922L183.506 115H180.242L173.738 99.856H174.986L168.506 115H165.29ZM168.77 111.112L169.61 108.664H178.682L179.522 111.112H168.77ZM185.643 115V98.2H192.555C194.043 98.2 195.315 98.44 196.371 98.92C197.443 99.4 198.267 100.088 198.843 100.984C199.419 101.88 199.707 102.944 199.707 104.176C199.707 105.408 199.419 106.472 198.843 107.368C198.267 108.248 197.443 108.928 196.371 109.408C195.315 109.872 194.043 110.104 192.555 110.104H187.371L188.763 108.688V115H185.643ZM196.635 115L192.387 108.904H195.723L199.995 115H196.635ZM188.763 109.024L187.371 107.536H192.411C193.787 107.536 194.819 107.24 195.507 106.648C196.211 106.056 196.563 105.232 196.563 104.176C196.563 103.104 196.211 102.28 195.507 101.704C194.819 101.128 193.787 100.84 192.411 100.84H187.371L188.763 99.304V109.024ZM206.077 105.184H214.429V107.752H206.077V105.184ZM206.317 112.384H215.797V115H203.197V98.2H215.461V100.816H206.317V112.384ZM219.276 115V98.2H221.844L232.38 111.136H231.108V98.2H234.204V115H231.636L221.1 102.064H222.372V115H219.276ZM242.113 115V100.84H236.545V98.2H250.801V100.84H245.233V115H242.113ZM256.8 117.4L264.72 94.792H267.408L259.488 117.4H256.8ZM283.163 115.24C281.851 115.24 280.643 115.032 279.539 114.616C278.451 114.184 277.499 113.584 276.683 112.816C275.867 112.032 275.235 111.112 274.787 110.056C274.339 109 274.115 107.848 274.115 106.6C274.115 105.352 274.339 104.2 274.787 103.144C275.235 102.088 275.867 101.176 276.683 100.408C277.515 99.624 278.483 99.024 279.587 98.608C280.691 98.176 281.899 97.96 283.211 97.96C284.635 97.96 285.915 98.192 287.051 98.656C288.203 99.12 289.171 99.8 289.955 100.696L287.987 102.616C287.331 101.96 286.619 101.48 285.851 101.176C285.099 100.856 284.267 100.696 283.355 100.696C282.475 100.696 281.659 100.84 280.907 101.128C280.155 101.416 279.507 101.824 278.963 102.352C278.419 102.88 277.995 103.504 277.691 104.224C277.403 104.944 277.259 105.736 277.259 106.6C277.259 107.448 277.403 108.232 277.691 108.952C277.995 109.672 278.419 110.304 278.963 110.848C279.507 111.376 280.147 111.784 280.883 112.072C281.619 112.36 282.435 112.504 283.331 112.504C284.163 112.504 284.963 112.376 285.731 112.12C286.515 111.848 287.259 111.4 287.963 110.776L289.739 113.104C288.859 113.808 287.835 114.344 286.667 114.712C285.515 115.064 284.347 115.24 283.163 115.24ZM286.787 112.696V106.408H289.739V113.104L286.787 112.696ZM301.078 115.24C298.774 115.24 296.966 114.592 295.654 113.296C294.358 112 293.71 110.128 293.71 107.68V98.2H296.83V107.56C296.83 109.288 297.198 110.544 297.934 111.328C298.686 112.112 299.742 112.504 301.102 112.504C302.462 112.504 303.51 112.112 304.246 111.328C304.982 110.544 305.35 109.288 305.35 107.56V98.2H308.422V107.68C308.422 110.128 307.766 112 306.454 113.296C305.158 114.592 303.366 115.24 301.078 115.24ZM310.064 115L317.624 98.2H320.696L328.28 115H325.016L318.512 99.856H319.76L313.28 115H310.064ZM313.544 111.112L314.384 108.664H323.456L324.296 111.112H313.544ZM330.416 115V98.2H337.328C338.816 98.2 340.088 98.44 341.144 98.92C342.216 99.4 343.04 100.088 343.616 100.984C344.192 101.88 344.48 102.944 344.48 104.176C344.48 105.408 344.192 106.472 343.616 107.368C343.04 108.248 342.216 108.928 341.144 109.408C340.088 109.872 338.816 110.104 337.328 110.104H332.144L333.536 108.688V115H330.416ZM341.408 115L337.16 108.904H340.496L344.768 115H341.408ZM333.536 109.024L332.144 107.536H337.184C338.56 107.536 339.592 107.24 340.28 106.648C340.984 106.056 341.336 105.232 341.336 104.176C341.336 103.104 340.984 102.28 340.28 101.704C339.592 101.128 338.56 100.84 337.184 100.84H332.144L333.536 99.304V109.024ZM347.971 115V98.2H355.315C357.139 98.2 358.739 98.552 360.115 99.256C361.491 99.96 362.563 100.936 363.331 102.184C364.099 103.432 364.483 104.904 364.483 106.6C364.483 108.28 364.099 109.752 363.331 111.016C362.563 112.264 361.491 113.24 360.115 113.944C358.739 114.648 357.139 115 355.315 115H347.971ZM351.091 112.36H355.171C356.435 112.36 357.523 112.12 358.435 111.64C359.363 111.16 360.075 110.488 360.571 109.624C361.083 108.76 361.339 107.752 361.339 106.6C361.339 105.432 361.083 104.424 360.571 103.576C360.075 102.712 359.363 102.04 358.435 101.56C357.523 101.08 356.435 100.84 355.171 100.84H351.091V112.36ZM367.799 115V98.2H370.919V115H367.799ZM373.087 115L380.647 98.2H383.719L391.303 115H388.039L381.535 99.856H382.783L376.303 115H373.087ZM376.567 111.112L377.407 108.664H386.479L387.319 111.112H376.567ZM393.44 115V98.2H396.008L406.544 111.136H405.272V98.2H408.368V115H405.8L395.264 102.064H396.536V115H393.44ZM118 144V129.84H112.432V127.2H126.688V129.84H121.12V144H118ZM136.667 144.24C135.355 144.24 134.147 144.024 133.043 143.592C131.939 143.16 130.979 142.56 130.163 141.792C129.347 141.008 128.715 140.096 128.267 139.056C127.819 138 127.595 136.848 127.595 135.6C127.595 134.352 127.819 133.208 128.267 132.168C128.715 131.112 129.347 130.2 130.163 129.432C130.979 128.648 131.939 128.04 133.043 127.608C134.147 127.176 135.347 126.96 136.643 126.96C137.955 126.96 139.155 127.176 140.243 127.608C141.347 128.04 142.307 128.648 143.123 129.432C143.939 130.2 144.571 131.112 145.019 132.168C145.467 133.208 145.691 134.352 145.691 135.6C145.691 136.848 145.467 138 145.019 139.056C144.571 140.112 143.939 141.024 143.123 141.792C142.307 142.56 141.347 143.16 140.243 143.592C139.155 144.024 137.963 144.24 136.667 144.24ZM136.643 141.504C137.491 141.504 138.275 141.36 138.995 141.072C139.715 140.784 140.339 140.376 140.867 139.848C141.395 139.304 141.803 138.68 142.091 137.976C142.395 137.256 142.547 136.464 142.547 135.6C142.547 134.736 142.395 133.952 142.091 133.248C141.803 132.528 141.395 131.904 140.867 131.376C140.339 130.832 139.715 130.416 138.995 130.128C138.275 129.84 137.491 129.696 136.643 129.696C135.795 129.696 135.011 129.84 134.291 130.128C133.587 130.416 132.963 130.832 132.419 131.376C131.891 131.904 131.475 132.528 131.171 133.248C130.883 133.952 130.739 134.736 130.739 135.6C130.739 136.448 130.883 137.232 131.171 137.952C131.475 138.672 131.891 139.304 132.419 139.848C132.947 140.376 133.571 140.784 134.291 141.072C135.011 141.36 135.795 141.504 136.643 141.504ZM163.407 144.24C162.127 144.24 160.935 144.032 159.831 143.616C158.743 143.184 157.791 142.584 156.975 141.816C156.175 141.032 155.551 140.112 155.103 139.056C154.655 138 154.431 136.848 154.431 135.6C154.431 134.352 154.655 133.2 155.103 132.144C155.551 131.088 156.183 130.176 156.999 129.408C157.815 128.624 158.767 128.024 159.855 127.608C160.943 127.176 162.135 126.96 163.431 126.96C164.807 126.96 166.063 127.2 167.199 127.68C168.335 128.144 169.295 128.84 170.079 129.768L168.063 131.664C167.455 131.008 166.775 130.52 166.023 130.2C165.271 129.864 164.455 129.696 163.575 129.696C162.695 129.696 161.887 129.84 161.151 130.128C160.431 130.416 159.799 130.824 159.255 131.352C158.727 131.88 158.311 132.504 158.007 133.224C157.719 133.944 157.575 134.736 157.575 135.6C157.575 136.464 157.719 137.256 158.007 137.976C158.311 138.696 158.727 139.32 159.255 139.848C159.799 140.376 160.431 140.784 161.151 141.072C161.887 141.36 162.695 141.504 163.575 141.504C164.455 141.504 165.271 141.344 166.023 141.024C166.775 140.688 167.455 140.184 168.063 139.512L170.079 141.432C169.295 142.344 168.335 143.04 167.199 143.52C166.063 144 164.799 144.24 163.407 144.24ZM173.069 144V127.2H179.981C181.469 127.2 182.741 127.44 183.797 127.92C184.869 128.4 185.693 129.088 186.269 129.984C186.845 130.88 187.133 131.944 187.133 133.176C187.133 134.408 186.845 135.472 186.269 136.368C185.693 137.248 184.869 137.928 183.797 138.408C182.741 138.872 181.469 139.104 179.981 139.104H174.797L176.189 137.688V144H173.069ZM184.061 144L179.813 137.904H183.148L187.421 144H184.061ZM176.189 138.024L174.797 136.536H179.837C181.213 136.536 182.245 136.24 182.932 135.648C183.637 135.056 183.989 134.232 183.989 133.176C183.989 132.104 183.637 131.28 182.932 130.704C182.245 130.128 181.213 129.84 179.837 129.84H174.797L176.189 128.304V138.024ZM193.503 134.184H201.855V136.752H193.503V134.184ZM193.743 141.384H203.223V144H190.623V127.2H202.887V129.816H193.743V141.384ZM204.325 144L211.885 127.2H214.957L222.541 144H219.277L212.773 128.856H214.021L207.541 144H204.325ZM207.805 140.112L208.645 137.664H217.717L218.557 140.112H207.805ZM227.242 144V129.84H221.674V127.2H235.93V129.84H230.362V144H227.242ZM241.152 134.184H249.504V136.752H241.152V134.184ZM241.392 141.384H250.872V144H238.272V127.2H250.536V129.816H241.392V141.384ZM258.607 144L266.167 127.2H269.239L276.823 144H273.559L267.055 128.856H268.303L261.823 144H258.607ZM262.087 140.112L262.927 137.664H271.999L272.839 140.112H262.087ZM285.592 144V127.2H292.504C293.992 127.2 295.264 127.44 296.32 127.92C297.392 128.4 298.216 129.088 298.792 129.984C299.368 130.88 299.656 131.944 299.656 133.176C299.656 134.408 299.368 135.472 298.792 136.368C298.216 137.264 297.392 137.952 296.32 138.432C295.264 138.912 293.992 139.152 292.504 139.152H287.32L288.712 137.688V144H285.592ZM288.712 138.024L287.32 136.512H292.36C293.736 136.512 294.768 136.224 295.456 135.648C296.16 135.056 296.512 134.232 296.512 133.176C296.512 132.104 296.16 131.28 295.456 130.704C294.768 130.128 293.736 129.84 292.36 129.84H287.32L288.712 128.304V138.024ZM302.772 144V127.2H309.684C311.172 127.2 312.444 127.44 313.5 127.92C314.572 128.4 315.396 129.088 315.972 129.984C316.548 130.88 316.836 131.944 316.836 133.176C316.836 134.408 316.548 135.472 315.972 136.368C315.396 137.248 314.572 137.928 313.5 138.408C312.444 138.872 311.172 139.104 309.684 139.104H304.5L305.892 137.688V144H302.772ZM313.764 144L309.516 137.904H312.852L317.124 144H313.764ZM305.892 138.024L304.5 136.536H309.54C310.916 136.536 311.948 136.24 312.636 135.648C313.34 135.056 313.692 134.232 313.692 133.176C313.692 132.104 313.34 131.28 312.636 130.704C311.948 130.128 310.916 129.84 309.54 129.84H304.5L305.892 128.304V138.024ZM328.198 144.24C326.886 144.24 325.678 144.024 324.574 143.592C323.47 143.16 322.51 142.56 321.694 141.792C320.878 141.008 320.246 140.096 319.798 139.056C319.35 138 319.126 136.848 319.126 135.6C319.126 134.352 319.35 133.208 319.798 132.168C320.246 131.112 320.878 130.2 321.694 129.432C322.51 128.648 323.47 128.04 324.574 127.608C325.678 127.176 326.878 126.96 328.174 126.96C329.486 126.96 330.686 127.176 331.774 127.608C332.878 128.04 333.838 128.648 334.654 129.432C335.47 130.2 336.102 131.112 336.55 132.168C336.998 133.208 337.222 134.352 337.222 135.6C337.222 136.848 336.998 138 336.55 139.056C336.102 140.112 335.47 141.024 334.654 141.792C333.838 142.56 332.878 143.16 331.774 143.592C330.686 144.024 329.494 144.24 328.198 144.24ZM328.174 141.504C329.022 141.504 329.806 141.36 330.526 141.072C331.246 140.784 331.87 140.376 332.398 139.848C332.926 139.304 333.334 138.68 333.622 137.976C333.926 137.256 334.078 136.464 334.078 135.6C334.078 134.736 333.926 133.952 333.622 133.248C333.334 132.528 332.926 131.904 332.398 131.376C331.87 130.832 331.246 130.416 330.526 130.128C329.806 129.84 329.022 129.696 328.174 129.696C327.326 129.696 326.542 129.84 325.822 130.128C325.118 130.416 324.494 130.832 323.95 131.376C323.422 131.904 323.006 132.528 322.702 133.248C322.414 133.952 322.27 134.736 322.27 135.6C322.27 136.448 322.414 137.232 322.702 137.952C323.006 138.672 323.422 139.304 323.95 139.848C324.478 140.376 325.102 140.784 325.822 141.072C326.542 141.36 327.326 141.504 328.174 141.504ZM343.385 134.928H351.761V137.568H343.385V134.928ZM343.649 144H340.529V127.2H352.793V129.816H343.649V144ZM355.811 144V127.2H358.931V144H355.811ZM363.475 144V127.2H366.595V141.36H375.379V144H363.475ZM380.722 134.184H389.074V136.752H380.722V134.184ZM380.962 141.384H390.442V144H377.842V127.2H390.106V129.816H380.962V141.384Z" fill="#424242"/>
</svg>
