<svg width="439" height="263" viewBox="0 0 439 263" fill="none" xmlns="http://www.w3.org/2000/svg">
<path fill-rule="evenodd" clip-rule="evenodd" d="M207.5 0C241.521 0 271.058 19.1967 285.871 47.349C299.089 37.6968 315.379 32 333 32C377.183 32 413 67.8172 413 112C413 124.378 410.189 136.1 405.17 146.561C425.237 156.688 439 177.487 439 201.5C439 235.466 411.466 263 377.5 263H61.5C27.5345 263 0 235.466 0 201.5C0 177.767 13.4438 157.173 33.1317 146.919C28.5536 137.056 26 126.074 26 114.5C26 71.6979 60.9218 37 104 37C113.899 37 123.367 38.832 132.079 42.1735C147.655 16.8701 175.607 0 207.5 0Z" fill="#E6E6E6"/>
<path d="M119.216 104L113.648 87.2H116.888L121.856 102.392H120.248L125.408 87.2H128.288L133.304 102.392H131.744L136.832 87.2H139.808L134.24 104H130.928L126.344 90.296H127.208L122.552 104H119.216ZM147.125 104.168C145.701 104.168 144.453 103.888 143.381 103.328C142.325 102.752 141.501 101.968 140.909 100.976C140.333 99.984 140.045 98.856 140.045 97.592C140.045 96.312 140.325 95.184 140.885 94.208C141.461 93.216 142.245 92.44 143.237 91.88C144.245 91.32 145.389 91.04 146.669 91.04C147.917 91.04 149.029 91.312 150.005 91.856C150.981 92.4 151.749 93.168 152.309 94.16C152.869 95.152 153.149 96.32 153.149 97.664C153.149 97.792 153.141 97.936 153.125 98.096C153.125 98.256 153.117 98.408 153.101 98.552H142.421V96.56H151.517L150.341 97.184C150.357 96.448 150.205 95.8 149.885 95.24C149.565 94.68 149.125 94.24 148.565 93.92C148.021 93.6 147.389 93.44 146.669 93.44C145.933 93.44 145.285 93.6 144.725 93.92C144.181 94.24 143.749 94.688 143.429 95.264C143.125 95.824 142.973 96.488 142.973 97.256V97.736C142.973 98.504 143.149 99.184 143.501 99.776C143.853 100.368 144.349 100.824 144.989 101.144C145.629 101.464 146.365 101.624 147.197 101.624C147.917 101.624 148.565 101.512 149.141 101.288C149.717 101.064 150.229 100.712 150.677 100.232L152.285 102.08C151.709 102.752 150.981 103.272 150.101 103.64C149.237 103.992 148.245 104.168 147.125 104.168ZM156.031 104V86.192H159.031V104H156.031ZM168.848 104.168C167.504 104.168 166.304 103.888 165.248 103.328C164.208 102.752 163.392 101.968 162.8 100.976C162.208 99.984 161.912 98.856 161.912 97.592C161.912 96.312 162.208 95.184 162.8 94.208C163.392 93.216 164.208 92.44 165.248 91.88C166.304 91.32 167.504 91.04 168.848 91.04C170.096 91.04 171.192 91.296 172.136 91.808C173.096 92.304 173.824 93.04 174.32 94.016L172.016 95.36C171.632 94.752 171.16 94.304 170.6 94.016C170.056 93.728 169.464 93.584 168.824 93.584C168.088 93.584 167.424 93.744 166.832 94.064C166.24 94.384 165.776 94.848 165.44 95.456C165.104 96.048 164.936 96.76 164.936 97.592C164.936 98.424 165.104 99.144 165.44 99.752C165.776 100.344 166.24 100.8 166.832 101.12C167.424 101.44 168.088 101.6 168.824 101.6C169.464 101.6 170.056 101.456 170.6 101.168C171.16 100.88 171.632 100.432 172.016 99.824L174.32 101.168C173.824 102.128 173.096 102.872 172.136 103.4C171.192 103.912 170.096 104.168 168.848 104.168ZM182.486 104.168C181.174 104.168 180.006 103.888 178.982 103.328C177.958 102.752 177.15 101.968 176.558 100.976C175.966 99.984 175.67 98.856 175.67 97.592C175.67 96.312 175.966 95.184 176.558 94.208C177.15 93.216 177.958 92.44 178.982 91.88C180.006 91.32 181.174 91.04 182.486 91.04C183.814 91.04 184.99 91.32 186.014 91.88C187.054 92.44 187.862 93.208 188.438 94.184C189.03 95.16 189.326 96.296 189.326 97.592C189.326 98.856 189.03 99.984 188.438 100.976C187.862 101.968 187.054 102.752 186.014 103.328C184.99 103.888 183.814 104.168 182.486 104.168ZM182.486 101.6C183.222 101.6 183.878 101.44 184.454 101.12C185.03 100.8 185.478 100.336 185.798 99.728C186.134 99.12 186.302 98.408 186.302 97.592C186.302 96.76 186.134 96.048 185.798 95.456C185.478 94.848 185.03 94.384 184.454 94.064C183.878 93.744 183.23 93.584 182.51 93.584C181.774 93.584 181.118 93.744 180.542 94.064C179.982 94.384 179.534 94.848 179.198 95.456C178.862 96.048 178.694 96.76 178.694 97.592C178.694 98.408 178.862 99.12 179.198 99.728C179.534 100.336 179.982 100.8 180.542 101.12C181.118 101.44 181.766 101.6 182.486 101.6ZM208.371 91.04C209.395 91.04 210.299 91.24 211.083 91.64C211.883 92.04 212.507 92.656 212.955 93.488C213.403 94.304 213.627 95.36 213.627 96.656V104H210.627V97.04C210.627 95.904 210.379 95.056 209.883 94.496C209.387 93.936 208.675 93.656 207.747 93.656C207.091 93.656 206.507 93.8 205.995 94.088C205.499 94.376 205.107 94.8 204.819 95.36C204.547 95.92 204.411 96.632 204.411 97.496V104H201.411V97.04C201.411 95.904 201.163 95.056 200.667 94.496C200.171 93.936 199.459 93.656 198.531 93.656C197.875 93.656 197.291 93.8 196.779 94.088C196.283 94.376 195.891 94.8 195.603 95.36C195.331 95.92 195.195 96.632 195.195 97.496V104H192.195V91.184H195.051V94.592L194.547 93.584C194.979 92.752 195.603 92.12 196.419 91.688C197.251 91.256 198.195 91.04 199.251 91.04C200.451 91.04 201.491 91.336 202.371 91.928C203.267 92.52 203.859 93.416 204.147 94.616L202.971 94.208C203.387 93.248 204.075 92.48 205.035 91.904C205.995 91.328 207.107 91.04 208.371 91.04ZM223.508 104.168C222.084 104.168 220.836 103.888 219.764 103.328C218.708 102.752 217.884 101.968 217.292 100.976C216.716 99.984 216.428 98.856 216.428 97.592C216.428 96.312 216.708 95.184 217.268 94.208C217.844 93.216 218.628 92.44 219.62 91.88C220.628 91.32 221.772 91.04 223.052 91.04C224.3 91.04 225.412 91.312 226.388 91.856C227.364 92.4 228.132 93.168 228.692 94.16C229.252 95.152 229.532 96.32 229.532 97.664C229.532 97.792 229.524 97.936 229.508 98.096C229.508 98.256 229.5 98.408 229.484 98.552H218.804V96.56H227.9L226.724 97.184C226.74 96.448 226.588 95.8 226.268 95.24C225.948 94.68 225.508 94.24 224.948 93.92C224.404 93.6 223.772 93.44 223.052 93.44C222.316 93.44 221.668 93.6 221.108 93.92C220.564 94.24 220.132 94.688 219.812 95.264C219.508 95.824 219.356 96.488 219.356 97.256V97.736C219.356 98.504 219.532 99.184 219.884 99.776C220.236 100.368 220.732 100.824 221.372 101.144C222.012 101.464 222.748 101.624 223.58 101.624C224.3 101.624 224.948 101.512 225.524 101.288C226.1 101.064 226.612 100.712 227.06 100.232L228.668 102.08C228.092 102.752 227.364 103.272 226.484 103.64C225.62 103.992 224.628 104.168 223.508 104.168ZM231.621 107.624L233.013 102.32L233.421 104.096C232.861 104.096 232.389 103.928 232.005 103.592C231.637 103.24 231.453 102.768 231.453 102.176C231.453 101.568 231.637 101.088 232.005 100.736C232.389 100.368 232.853 100.184 233.397 100.184C233.957 100.184 234.421 100.368 234.789 100.736C235.157 101.104 235.341 101.584 235.341 102.176C235.341 102.336 235.325 102.512 235.293 102.704C235.261 102.88 235.205 103.088 235.125 103.328C235.061 103.568 234.949 103.872 234.789 104.24L233.565 107.624H231.621ZM245.194 104V87.2H252.106C253.594 87.2 254.866 87.44 255.922 87.92C256.994 88.4 257.818 89.088 258.394 89.984C258.97 90.88 259.258 91.944 259.258 93.176C259.258 94.408 258.97 95.472 258.394 96.368C257.818 97.264 256.994 97.952 255.922 98.432C254.866 98.912 253.594 99.152 252.106 99.152H246.922L248.314 97.688V104H245.194ZM248.314 98.024L246.922 96.512H251.962C253.338 96.512 254.37 96.224 255.057 95.648C255.762 95.056 256.114 94.232 256.114 93.176C256.114 92.104 255.762 91.28 255.057 90.704C254.37 90.128 253.338 89.84 251.962 89.84H246.922L248.314 88.304V98.024ZM269.864 104V101.408L269.696 100.856V96.32C269.696 95.44 269.432 94.76 268.904 94.28C268.376 93.784 267.576 93.536 266.504 93.536C265.784 93.536 265.072 93.648 264.368 93.872C263.68 94.096 263.096 94.408 262.616 94.808L261.44 92.624C262.128 92.096 262.944 91.704 263.888 91.448C264.848 91.176 265.84 91.04 266.864 91.04C268.72 91.04 270.152 91.488 271.16 92.384C272.184 93.264 272.696 94.632 272.696 96.488V104H269.864ZM265.832 104.168C264.872 104.168 264.032 104.008 263.312 103.688C262.592 103.352 262.032 102.896 261.632 102.32C261.248 101.728 261.056 101.064 261.056 100.328C261.056 99.608 261.224 98.96 261.56 98.384C261.912 97.808 262.48 97.352 263.264 97.016C264.048 96.68 265.088 96.512 266.384 96.512H270.104V98.504H266.6C265.576 98.504 264.888 98.672 264.536 99.008C264.184 99.328 264.008 99.728 264.008 100.208C264.008 100.752 264.224 101.184 264.656 101.504C265.088 101.824 265.688 101.984 266.456 101.984C267.192 101.984 267.848 101.816 268.424 101.48C269.016 101.144 269.44 100.648 269.696 99.992L270.2 101.792C269.912 102.544 269.392 103.128 268.64 103.544C267.904 103.96 266.968 104.168 265.832 104.168ZM276.546 104V91.184H279.402V94.712L279.066 93.68C279.45 92.816 280.05 92.16 280.866 91.712C281.698 91.264 282.73 91.04 283.962 91.04V93.896C283.834 93.864 283.714 93.848 283.602 93.848C283.49 93.832 283.378 93.824 283.266 93.824C282.13 93.824 281.226 94.16 280.554 94.832C279.882 95.488 279.546 96.472 279.546 97.784V104H276.546ZM292.414 104.168C290.99 104.168 289.742 103.888 288.67 103.328C287.614 102.752 286.79 101.968 286.198 100.976C285.622 99.984 285.334 98.856 285.334 97.592C285.334 96.312 285.614 95.184 286.174 94.208C286.75 93.216 287.534 92.44 288.526 91.88C289.534 91.32 290.678 91.04 291.958 91.04C293.206 91.04 294.318 91.312 295.294 91.856C296.27 92.4 297.038 93.168 297.598 94.16C298.158 95.152 298.438 96.32 298.438 97.664C298.438 97.792 298.43 97.936 298.414 98.096C298.414 98.256 298.406 98.408 298.39 98.552H287.71V96.56H296.806L295.63 97.184C295.646 96.448 295.494 95.8 295.174 95.24C294.854 94.68 294.414 94.24 293.854 93.92C293.31 93.6 292.678 93.44 291.958 93.44C291.222 93.44 290.574 93.6 290.014 93.92C289.47 94.24 289.038 94.688 288.718 95.264C288.414 95.824 288.262 96.488 288.262 97.256V97.736C288.262 98.504 288.438 99.184 288.79 99.776C289.142 100.368 289.638 100.824 290.278 101.144C290.918 101.464 291.654 101.624 292.486 101.624C293.206 101.624 293.854 101.512 294.43 101.288C295.006 101.064 295.518 100.712 295.966 100.232L297.574 102.08C296.998 102.752 296.27 103.272 295.39 103.64C294.526 103.992 293.534 104.168 292.414 104.168ZM308.592 91.04C309.616 91.04 310.528 91.24 311.328 91.64C312.144 92.04 312.784 92.656 313.248 93.488C313.712 94.304 313.944 95.36 313.944 96.656V104H310.944V97.04C310.944 95.904 310.672 95.056 310.128 94.496C309.6 93.936 308.856 93.656 307.896 93.656C307.192 93.656 306.568 93.8 306.024 94.088C305.48 94.376 305.056 94.808 304.752 95.384C304.464 95.944 304.32 96.656 304.32 97.52V104H301.32V91.184H304.176V94.64L303.672 93.584C304.12 92.768 304.768 92.144 305.616 91.712C306.48 91.264 307.472 91.04 308.592 91.04ZM322.573 104.168C321.165 104.168 320.077 103.808 319.309 103.088C318.541 102.352 318.157 101.272 318.157 99.848V88.352H321.157V99.776C321.157 100.384 321.309 100.856 321.613 101.192C321.933 101.528 322.373 101.696 322.933 101.696C323.605 101.696 324.165 101.52 324.613 101.168L325.453 103.304C325.101 103.592 324.669 103.808 324.157 103.952C323.645 104.096 323.117 104.168 322.573 104.168ZM316.045 93.68V91.28H324.589V93.68H316.045Z" fill="#424242"/>
<path d="M152.431 140.144C151.471 140.144 150.583 139.988 149.767 139.676C148.963 139.352 148.261 138.902 147.661 138.326C147.073 137.738 146.611 137.054 146.275 136.274C145.939 135.494 145.771 134.636 145.771 133.7C145.771 132.764 145.939 131.906 146.275 131.126C146.611 130.346 147.079 129.668 147.679 129.092C148.279 128.504 148.981 128.054 149.785 127.742C150.601 127.418 151.489 127.256 152.449 127.256C153.421 127.256 154.315 127.424 155.131 127.76C155.959 128.084 156.661 128.57 157.237 129.218L156.067 130.352C155.587 129.848 155.047 129.476 154.447 129.236C153.847 128.984 153.205 128.858 152.521 128.858C151.813 128.858 151.153 128.978 150.541 129.218C149.941 129.458 149.419 129.794 148.975 130.226C148.531 130.658 148.183 131.174 147.931 131.774C147.691 132.362 147.571 133.004 147.571 133.7C147.571 134.396 147.691 135.044 147.931 135.644C148.183 136.232 148.531 136.742 148.975 137.174C149.419 137.606 149.941 137.942 150.541 138.182C151.153 138.422 151.813 138.542 152.521 138.542C153.205 138.542 153.847 138.422 154.447 138.182C155.047 137.93 155.587 137.546 156.067 137.03L157.237 138.164C156.661 138.812 155.959 139.304 155.131 139.64C154.315 139.976 153.415 140.144 152.431 140.144ZM163.235 140.108C162.275 140.108 161.423 139.898 160.679 139.478C159.935 139.058 159.347 138.482 158.915 137.75C158.483 137.006 158.267 136.166 158.267 135.23C158.267 134.282 158.483 133.442 158.915 132.71C159.347 131.978 159.935 131.408 160.679 131C161.423 130.58 162.275 130.37 163.235 130.37C164.183 130.37 165.029 130.58 165.773 131C166.529 131.408 167.117 131.978 167.537 132.71C167.969 133.43 168.185 134.27 168.185 135.23C168.185 136.178 167.969 137.018 167.537 137.75C167.117 138.482 166.529 139.058 165.773 139.478C165.029 139.898 164.183 140.108 163.235 140.108ZM163.235 138.596C163.847 138.596 164.393 138.458 164.873 138.182C165.365 137.906 165.749 137.516 166.025 137.012C166.301 136.496 166.439 135.902 166.439 135.23C166.439 134.546 166.301 133.958 166.025 133.466C165.749 132.962 165.365 132.572 164.873 132.296C164.393 132.02 163.847 131.882 163.235 131.882C162.623 131.882 162.077 132.02 161.597 132.296C161.117 132.572 160.733 132.962 160.445 133.466C160.157 133.958 160.013 134.546 160.013 135.23C160.013 135.902 160.157 136.496 160.445 137.012C160.733 137.516 161.117 137.906 161.597 138.182C162.077 138.458 162.623 138.596 163.235 138.596ZM175.669 130.37C176.449 130.37 177.133 130.52 177.721 130.82C178.321 131.12 178.789 131.576 179.125 132.188C179.461 132.8 179.629 133.574 179.629 134.51V140H177.901V134.708C177.901 133.784 177.673 133.088 177.217 132.62C176.773 132.152 176.143 131.918 175.327 131.918C174.715 131.918 174.181 132.038 173.725 132.278C173.269 132.518 172.915 132.872 172.663 133.34C172.423 133.808 172.303 134.39 172.303 135.086V140H170.575V130.46H172.231V133.034L171.961 132.35C172.273 131.726 172.753 131.24 173.401 130.892C174.049 130.544 174.805 130.37 175.669 130.37ZM186.102 140.108C185.142 140.108 184.398 139.85 183.87 139.334C183.342 138.818 183.078 138.08 183.078 137.12V128.372H184.806V137.048C184.806 137.564 184.932 137.96 185.184 138.236C185.448 138.512 185.82 138.65 186.3 138.65C186.84 138.65 187.29 138.5 187.65 138.2L188.19 139.442C187.926 139.67 187.608 139.838 187.236 139.946C186.876 140.054 186.498 140.108 186.102 140.108ZM181.458 131.882V130.46H187.542V131.882H181.458ZM194.211 140.108C193.191 140.108 192.291 139.898 191.511 139.478C190.743 139.058 190.143 138.482 189.711 137.75C189.291 137.018 189.081 136.178 189.081 135.23C189.081 134.282 189.285 133.442 189.693 132.71C190.113 131.978 190.683 131.408 191.403 131C192.135 130.58 192.957 130.37 193.869 130.37C194.793 130.37 195.609 130.574 196.317 130.982C197.025 131.39 197.577 131.966 197.973 132.71C198.381 133.442 198.585 134.3 198.585 135.284C198.585 135.356 198.579 135.44 198.567 135.536C198.567 135.632 198.561 135.722 198.549 135.806H190.431V134.564H197.649L196.947 134.996C196.959 134.384 196.833 133.838 196.569 133.358C196.305 132.878 195.939 132.506 195.471 132.242C195.015 131.966 194.481 131.828 193.869 131.828C193.269 131.828 192.735 131.966 192.267 132.242C191.799 132.506 191.433 132.884 191.169 133.376C190.905 133.856 190.773 134.408 190.773 135.032V135.32C190.773 135.956 190.917 136.526 191.205 137.03C191.505 137.522 191.919 137.906 192.447 138.182C192.975 138.458 193.581 138.596 194.265 138.596C194.829 138.596 195.339 138.5 195.795 138.308C196.263 138.116 196.671 137.828 197.019 137.444L197.973 138.56C197.541 139.064 197.001 139.448 196.353 139.712C195.717 139.976 195.003 140.108 194.211 140.108ZM206.079 130.37C206.859 130.37 207.543 130.52 208.131 130.82C208.731 131.12 209.199 131.576 209.535 132.188C209.871 132.8 210.039 133.574 210.039 134.51V140H208.311V134.708C208.311 133.784 208.083 133.088 207.627 132.62C207.183 132.152 206.553 131.918 205.737 131.918C205.125 131.918 204.591 132.038 204.135 132.278C203.679 132.518 203.325 132.872 203.073 133.34C202.833 133.808 202.713 134.39 202.713 135.086V140H200.985V130.46H202.641V133.034L202.371 132.35C202.683 131.726 203.163 131.24 203.811 130.892C204.459 130.544 205.215 130.37 206.079 130.37ZM216.513 140.108C215.553 140.108 214.809 139.85 214.281 139.334C213.753 138.818 213.489 138.08 213.489 137.12V128.372H215.217V137.048C215.217 137.564 215.343 137.96 215.595 138.236C215.859 138.512 216.231 138.65 216.711 138.65C217.251 138.65 217.701 138.5 218.061 138.2L218.601 139.442C218.337 139.67 218.019 139.838 217.647 139.946C217.287 140.054 216.909 140.108 216.513 140.108ZM211.869 131.882V130.46H217.953V131.882H211.869ZM229.682 140.108C228.71 140.108 227.84 139.898 227.072 139.478C226.316 139.058 225.722 138.482 225.29 137.75C224.858 137.018 224.642 136.178 224.642 135.23C224.642 134.282 224.858 133.442 225.29 132.71C225.722 131.978 226.316 131.408 227.072 131C227.84 130.58 228.71 130.37 229.682 130.37C230.546 130.37 231.314 130.544 231.986 130.892C232.67 131.228 233.198 131.732 233.57 132.404L232.256 133.25C231.944 132.782 231.56 132.44 231.104 132.224C230.66 131.996 230.18 131.882 229.664 131.882C229.04 131.882 228.482 132.02 227.99 132.296C227.498 132.572 227.108 132.962 226.82 133.466C226.532 133.958 226.388 134.546 226.388 135.23C226.388 135.914 226.532 136.508 226.82 137.012C227.108 137.516 227.498 137.906 227.99 138.182C228.482 138.458 229.04 138.596 229.664 138.596C230.18 138.596 230.66 138.488 231.104 138.272C231.56 138.044 231.944 137.696 232.256 137.228L233.57 138.056C233.198 138.716 232.67 139.226 231.986 139.586C231.314 139.934 230.546 140.108 229.682 140.108ZM239.821 140.108C239.005 140.108 238.285 139.958 237.661 139.658C237.049 139.358 236.569 138.902 236.221 138.29C235.885 137.666 235.717 136.886 235.717 135.95V130.46H237.445V135.752C237.445 136.688 237.667 137.39 238.111 137.858C238.567 138.326 239.203 138.56 240.019 138.56C240.619 138.56 241.141 138.44 241.585 138.2C242.029 137.948 242.371 137.588 242.611 137.12C242.851 136.64 242.971 136.064 242.971 135.392V130.46H244.699V140H243.061V137.426L243.331 138.11C243.019 138.746 242.551 139.238 241.927 139.586C241.303 139.934 240.601 140.108 239.821 140.108ZM247.989 140V130.46H249.645V133.052L249.483 132.404C249.747 131.744 250.191 131.24 250.815 130.892C251.439 130.544 252.207 130.37 253.119 130.37V132.044C253.047 132.032 252.975 132.026 252.903 132.026C252.843 132.026 252.783 132.026 252.723 132.026C251.799 132.026 251.067 132.302 250.527 132.854C249.987 133.406 249.717 134.204 249.717 135.248V140H247.989ZM260.467 140V137.984L260.377 137.606V134.168C260.377 133.436 260.161 132.872 259.729 132.476C259.309 132.068 258.673 131.864 257.821 131.864C257.257 131.864 256.705 131.96 256.165 132.152C255.625 132.332 255.169 132.578 254.797 132.89L254.077 131.594C254.569 131.198 255.157 130.898 255.841 130.694C256.537 130.478 257.263 130.37 258.019 130.37C259.327 130.37 260.335 130.688 261.043 131.324C261.751 131.96 262.105 132.932 262.105 134.24V140H260.467ZM257.335 140.108C256.627 140.108 256.003 139.988 255.463 139.748C254.935 139.508 254.527 139.178 254.239 138.758C253.951 138.326 253.807 137.84 253.807 137.3C253.807 136.784 253.927 136.316 254.167 135.896C254.419 135.476 254.821 135.14 255.373 134.888C255.937 134.636 256.693 134.51 257.641 134.51H260.665V135.752H257.713C256.849 135.752 256.267 135.896 255.967 136.184C255.667 136.472 255.517 136.82 255.517 137.228C255.517 137.696 255.703 138.074 256.075 138.362C256.447 138.638 256.963 138.776 257.623 138.776C258.271 138.776 258.835 138.632 259.315 138.344C259.807 138.056 260.161 137.636 260.377 137.084L260.719 138.272C260.491 138.836 260.089 139.286 259.513 139.622C258.937 139.946 258.211 140.108 257.335 140.108ZM268.579 140.108C267.619 140.108 266.875 139.85 266.347 139.334C265.819 138.818 265.555 138.08 265.555 137.12V128.372H267.283V137.048C267.283 137.564 267.409 137.96 267.661 138.236C267.925 138.512 268.297 138.65 268.777 138.65C269.317 138.65 269.767 138.5 270.127 138.2L270.667 139.442C270.403 139.67 270.085 139.838 269.713 139.946C269.353 140.054 268.975 140.108 268.579 140.108ZM263.935 131.882V130.46H270.019V131.882H263.935ZM276.688 140.108C275.668 140.108 274.768 139.898 273.988 139.478C273.22 139.058 272.62 138.482 272.188 137.75C271.768 137.018 271.558 136.178 271.558 135.23C271.558 134.282 271.762 133.442 272.17 132.71C272.59 131.978 273.16 131.408 273.88 131C274.612 130.58 275.434 130.37 276.346 130.37C277.27 130.37 278.086 130.574 278.794 130.982C279.502 131.39 280.054 131.966 280.45 132.71C280.858 133.442 281.062 134.3 281.062 135.284C281.062 135.356 281.056 135.44 281.044 135.536C281.044 135.632 281.038 135.722 281.026 135.806H272.908V134.564H280.126L279.424 134.996C279.436 134.384 279.31 133.838 279.046 133.358C278.782 132.878 278.416 132.506 277.948 132.242C277.492 131.966 276.958 131.828 276.346 131.828C275.746 131.828 275.212 131.966 274.744 132.242C274.276 132.506 273.91 132.884 273.646 133.376C273.382 133.856 273.25 134.408 273.25 135.032V135.32C273.25 135.956 273.394 136.526 273.682 137.03C273.982 137.522 274.396 137.906 274.924 138.182C275.452 138.458 276.058 138.596 276.742 138.596C277.306 138.596 277.816 138.5 278.272 138.308C278.74 138.116 279.148 137.828 279.496 137.444L280.45 138.56C280.018 139.064 279.478 139.448 278.83 139.712C278.194 139.976 277.48 140.108 276.688 140.108ZM287.403 140.108C286.479 140.108 285.651 139.904 284.919 139.496C284.199 139.088 283.629 138.518 283.209 137.786C282.789 137.054 282.579 136.202 282.579 135.23C282.579 134.258 282.789 133.412 283.209 132.692C283.629 131.96 284.199 131.39 284.919 130.982C285.651 130.574 286.479 130.37 287.403 130.37C288.207 130.37 288.933 130.55 289.581 130.91C290.229 131.27 290.745 131.81 291.129 132.53C291.525 133.25 291.723 134.15 291.723 135.23C291.723 136.31 291.531 137.21 291.147 137.93C290.775 138.65 290.265 139.196 289.617 139.568C288.969 139.928 288.231 140.108 287.403 140.108ZM287.547 138.596C288.147 138.596 288.687 138.458 289.167 138.182C289.659 137.906 290.043 137.516 290.319 137.012C290.607 136.496 290.751 135.902 290.751 135.23C290.751 134.546 290.607 133.958 290.319 133.466C290.043 132.962 289.659 132.572 289.167 132.296C288.687 132.02 288.147 131.882 287.547 131.882C286.935 131.882 286.389 132.02 285.909 132.296C285.429 132.572 285.045 132.962 284.757 133.466C284.469 133.958 284.325 134.546 284.325 135.23C284.325 135.902 284.469 136.496 284.757 137.012C285.045 137.516 285.429 137.906 285.909 138.182C286.389 138.458 286.935 138.596 287.547 138.596ZM290.805 140V137.426L290.913 135.212L290.733 132.998V126.644H292.461V140H290.805ZM134.287 162.108C133.495 162.108 132.739 162 132.019 161.784C131.311 161.568 130.753 161.304 130.345 160.992L131.065 159.624C131.473 159.9 131.977 160.134 132.577 160.326C133.177 160.518 133.789 160.614 134.413 160.614C135.217 160.614 135.793 160.5 136.141 160.272C136.501 160.044 136.681 159.726 136.681 159.318C136.681 159.018 136.573 158.784 136.357 158.616C136.141 158.448 135.853 158.322 135.493 158.238C135.145 158.154 134.755 158.082 134.323 158.022C133.891 157.95 133.459 157.866 133.027 157.77C132.595 157.662 132.199 157.518 131.839 157.338C131.479 157.146 131.191 156.888 130.975 156.564C130.759 156.228 130.651 155.784 130.651 155.232C130.651 154.656 130.813 154.152 131.137 153.72C131.461 153.288 131.917 152.958 132.505 152.73C133.105 152.49 133.813 152.37 134.629 152.37C135.253 152.37 135.883 152.448 136.519 152.604C137.167 152.748 137.695 152.958 138.103 153.234L137.365 154.602C136.933 154.314 136.483 154.116 136.015 154.008C135.547 153.9 135.079 153.846 134.611 153.846C133.855 153.846 133.291 153.972 132.919 154.224C132.547 154.464 132.361 154.776 132.361 155.16C132.361 155.484 132.469 155.736 132.685 155.916C132.913 156.084 133.201 156.216 133.549 156.312C133.909 156.408 134.305 156.492 134.737 156.564C135.169 156.624 135.601 156.708 136.033 156.816C136.465 156.912 136.855 157.05 137.203 157.23C137.563 157.41 137.851 157.662 138.067 157.986C138.295 158.31 138.409 158.742 138.409 159.282C138.409 159.858 138.241 160.356 137.905 160.776C137.569 161.196 137.095 161.526 136.483 161.766C135.871 161.994 135.139 162.108 134.287 162.108ZM145.627 162.108C144.835 162.108 144.109 161.928 143.449 161.568C142.801 161.196 142.279 160.65 141.883 159.93C141.499 159.21 141.307 158.31 141.307 157.23C141.307 156.15 141.493 155.25 141.865 154.53C142.249 153.81 142.765 153.27 143.413 152.91C144.073 152.55 144.811 152.37 145.627 152.37C146.563 152.37 147.391 152.574 148.111 152.982C148.831 153.39 149.401 153.96 149.821 154.692C150.241 155.412 150.451 156.258 150.451 157.23C150.451 158.202 150.241 159.054 149.821 159.786C149.401 160.518 148.831 161.088 148.111 161.496C147.391 161.904 146.563 162.108 145.627 162.108ZM140.569 165.492V152.46H142.225V155.034L142.117 157.248L142.297 159.462V165.492H140.569ZM145.483 160.596C146.095 160.596 146.641 160.458 147.121 160.182C147.613 159.906 147.997 159.516 148.273 159.012C148.561 158.496 148.705 157.902 148.705 157.23C148.705 156.546 148.561 155.958 148.273 155.466C147.997 154.962 147.613 154.572 147.121 154.296C146.641 154.02 146.095 153.882 145.483 153.882C144.883 153.882 144.337 154.02 143.845 154.296C143.365 154.572 142.981 154.962 142.693 155.466C142.417 155.958 142.279 156.546 142.279 157.23C142.279 157.902 142.417 158.496 142.693 159.012C142.981 159.516 143.365 159.906 143.845 160.182C144.337 160.458 144.883 160.596 145.483 160.596ZM157.086 162.108C156.066 162.108 155.166 161.898 154.386 161.478C153.618 161.058 153.018 160.482 152.586 159.75C152.166 159.018 151.956 158.178 151.956 157.23C151.956 156.282 152.16 155.442 152.568 154.71C152.988 153.978 153.558 153.408 154.278 153C155.01 152.58 155.832 152.37 156.744 152.37C157.668 152.37 158.484 152.574 159.192 152.982C159.9 153.39 160.452 153.966 160.848 154.71C161.256 155.442 161.46 156.3 161.46 157.284C161.46 157.356 161.454 157.44 161.442 157.536C161.442 157.632 161.436 157.722 161.424 157.806H153.306V156.564H160.524L159.822 156.996C159.834 156.384 159.708 155.838 159.444 155.358C159.18 154.878 158.814 154.506 158.346 154.242C157.89 153.966 157.356 153.828 156.744 153.828C156.144 153.828 155.61 153.966 155.142 154.242C154.674 154.506 154.308 154.884 154.044 155.376C153.78 155.856 153.648 156.408 153.648 157.032V157.32C153.648 157.956 153.792 158.526 154.08 159.03C154.38 159.522 154.794 159.906 155.322 160.182C155.85 160.458 156.456 160.596 157.14 160.596C157.704 160.596 158.214 160.5 158.67 160.308C159.138 160.116 159.546 159.828 159.894 159.444L160.848 160.56C160.416 161.064 159.876 161.448 159.228 161.712C158.592 161.976 157.878 162.108 157.086 162.108ZM168.018 162.108C167.046 162.108 166.176 161.898 165.408 161.478C164.652 161.058 164.058 160.482 163.626 159.75C163.194 159.018 162.978 158.178 162.978 157.23C162.978 156.282 163.194 155.442 163.626 154.71C164.058 153.978 164.652 153.408 165.408 153C166.176 152.58 167.046 152.37 168.018 152.37C168.882 152.37 169.65 152.544 170.322 152.892C171.006 153.228 171.534 153.732 171.906 154.404L170.592 155.25C170.28 154.782 169.896 154.44 169.44 154.224C168.996 153.996 168.516 153.882 168 153.882C167.376 153.882 166.818 154.02 166.326 154.296C165.834 154.572 165.444 154.962 165.156 155.466C164.868 155.958 164.724 156.546 164.724 157.23C164.724 157.914 164.868 158.508 165.156 159.012C165.444 159.516 165.834 159.906 166.326 160.182C166.818 160.458 167.376 160.596 168 160.596C168.516 160.596 168.996 160.488 169.44 160.272C169.896 160.044 170.28 159.696 170.592 159.228L171.906 160.056C171.534 160.716 171.006 161.226 170.322 161.586C169.65 161.934 168.882 162.108 168.018 162.108ZM174.02 162V152.46H175.748V162H174.02ZM174.884 150.624C174.548 150.624 174.266 150.516 174.038 150.3C173.822 150.084 173.714 149.82 173.714 149.508C173.714 149.184 173.822 148.914 174.038 148.698C174.266 148.482 174.548 148.374 174.884 148.374C175.22 148.374 175.496 148.482 175.712 148.698C175.94 148.902 176.054 149.16 176.054 149.472C176.054 149.796 175.946 150.072 175.73 150.3C175.514 150.516 175.232 150.624 174.884 150.624ZM184.969 162V159.984L184.879 159.606V156.168C184.879 155.436 184.663 154.872 184.231 154.476C183.811 154.068 183.175 153.864 182.323 153.864C181.759 153.864 181.207 153.96 180.667 154.152C180.127 154.332 179.671 154.578 179.299 154.89L178.579 153.594C179.071 153.198 179.659 152.898 180.343 152.694C181.039 152.478 181.765 152.37 182.521 152.37C183.829 152.37 184.837 152.688 185.545 153.324C186.253 153.96 186.607 154.932 186.607 156.24V162H184.969ZM181.837 162.108C181.129 162.108 180.505 161.988 179.965 161.748C179.437 161.508 179.029 161.178 178.741 160.758C178.453 160.326 178.309 159.84 178.309 159.3C178.309 158.784 178.429 158.316 178.669 157.896C178.921 157.476 179.323 157.14 179.875 156.888C180.439 156.636 181.195 156.51 182.143 156.51H185.167V157.752H182.215C181.351 157.752 180.769 157.896 180.469 158.184C180.169 158.472 180.019 158.82 180.019 159.228C180.019 159.696 180.205 160.074 180.577 160.362C180.949 160.638 181.465 160.776 182.125 160.776C182.773 160.776 183.337 160.632 183.817 160.344C184.309 160.056 184.663 159.636 184.879 159.084L185.221 160.272C184.993 160.836 184.591 161.286 184.015 161.622C183.439 161.946 182.713 162.108 181.837 162.108ZM189.805 162V148.644H191.533V162H189.805ZM194.832 162V148.644H196.56V162H194.832ZM200.274 165.6C199.818 165.6 199.374 165.522 198.942 165.366C198.51 165.222 198.138 165.006 197.826 164.718L198.564 163.422C198.804 163.65 199.068 163.824 199.356 163.944C199.644 164.064 199.95 164.124 200.274 164.124C200.694 164.124 201.042 164.016 201.318 163.8C201.594 163.584 201.852 163.2 202.092 162.648L202.686 161.334L202.866 161.118L206.61 152.46H208.302L203.676 162.954C203.4 163.626 203.088 164.154 202.74 164.538C202.404 164.922 202.032 165.192 201.624 165.348C201.216 165.516 200.766 165.6 200.274 165.6ZM202.542 162.306L198.186 152.46H199.986L203.694 160.956L202.542 162.306ZM218.024 162.108C217.064 162.108 216.32 161.85 215.792 161.334C215.264 160.818 215 160.08 215 159.12V150.372H216.728V159.048C216.728 159.564 216.854 159.96 217.106 160.236C217.37 160.512 217.742 160.65 218.222 160.65C218.762 160.65 219.212 160.5 219.572 160.2L220.112 161.442C219.848 161.67 219.53 161.838 219.158 161.946C218.798 162.054 218.42 162.108 218.024 162.108ZM213.38 153.882V152.46H219.464V153.882H213.38ZM225.971 162.108C225.011 162.108 224.159 161.898 223.415 161.478C222.671 161.058 222.083 160.482 221.651 159.75C221.219 159.006 221.003 158.166 221.003 157.23C221.003 156.282 221.219 155.442 221.651 154.71C222.083 153.978 222.671 153.408 223.415 153C224.159 152.58 225.011 152.37 225.971 152.37C226.919 152.37 227.765 152.58 228.509 153C229.265 153.408 229.853 153.978 230.273 154.71C230.705 155.43 230.921 156.27 230.921 157.23C230.921 158.178 230.705 159.018 230.273 159.75C229.853 160.482 229.265 161.058 228.509 161.478C227.765 161.898 226.919 162.108 225.971 162.108ZM225.971 160.596C226.583 160.596 227.129 160.458 227.609 160.182C228.101 159.906 228.485 159.516 228.761 159.012C229.037 158.496 229.175 157.902 229.175 157.23C229.175 156.546 229.037 155.958 228.761 155.466C228.485 154.962 228.101 154.572 227.609 154.296C227.129 154.02 226.583 153.882 225.971 153.882C225.359 153.882 224.813 154.02 224.333 154.296C223.853 154.572 223.469 154.962 223.181 155.466C222.893 155.958 222.749 156.546 222.749 157.23C222.749 157.902 222.893 158.496 223.181 159.012C223.469 159.516 223.853 159.906 224.333 160.182C224.813 160.458 225.359 160.596 225.971 160.596ZM238.397 162V151.614C238.397 150.678 238.667 149.934 239.207 149.382C239.759 148.818 240.539 148.536 241.547 148.536C241.919 148.536 242.273 148.584 242.609 148.68C242.957 148.764 243.251 148.902 243.491 149.094L242.969 150.408C242.789 150.264 242.585 150.156 242.357 150.084C242.129 150 241.889 149.958 241.637 149.958C241.133 149.958 240.749 150.102 240.485 150.39C240.221 150.666 240.089 151.08 240.089 151.632V152.91L240.125 153.702V162H238.397ZM236.777 153.882V152.46H242.861V153.882H236.777ZM244.499 162V152.46H246.227V162H244.499ZM245.363 150.624C245.027 150.624 244.745 150.516 244.517 150.3C244.301 150.084 244.193 149.82 244.193 149.508C244.193 149.184 244.301 148.914 244.517 148.698C244.745 148.482 245.027 148.374 245.363 148.374C245.699 148.374 245.975 148.482 246.191 148.698C246.419 148.902 246.533 149.16 246.533 149.472C246.533 149.796 246.425 150.072 246.209 150.3C245.993 150.516 245.711 150.624 245.363 150.624ZM252.794 162.108C251.834 162.108 251.09 161.85 250.562 161.334C250.034 160.818 249.77 160.08 249.77 159.12V150.372H251.498V159.048C251.498 159.564 251.624 159.96 251.876 160.236C252.14 160.512 252.512 160.65 252.992 160.65C253.532 160.65 253.982 160.5 254.342 160.2L254.882 161.442C254.618 161.67 254.3 161.838 253.928 161.946C253.568 162.054 253.19 162.108 252.794 162.108ZM248.15 153.882V152.46H254.234V153.882H248.15ZM265.081 162.108C264.121 162.108 263.377 161.85 262.849 161.334C262.321 160.818 262.057 160.08 262.057 159.12V150.372H263.785V159.048C263.785 159.564 263.911 159.96 264.163 160.236C264.427 160.512 264.799 160.65 265.279 160.65C265.819 160.65 266.269 160.5 266.629 160.2L267.169 161.442C266.905 161.67 266.587 161.838 266.215 161.946C265.855 162.054 265.477 162.108 265.081 162.108ZM260.437 153.882V152.46H266.521V153.882H260.437ZM274.352 152.37C275.132 152.37 275.816 152.52 276.404 152.82C277.004 153.12 277.472 153.576 277.808 154.188C278.144 154.8 278.312 155.574 278.312 156.51V162H276.584V156.708C276.584 155.784 276.356 155.088 275.9 154.62C275.456 154.152 274.826 153.918 274.01 153.918C273.398 153.918 272.864 154.038 272.408 154.278C271.952 154.518 271.598 154.872 271.346 155.34C271.106 155.808 270.986 156.39 270.986 157.086V162H269.258V148.644H270.986V155.034L270.644 154.35C270.956 153.726 271.436 153.24 272.084 152.892C272.732 152.544 273.488 152.37 274.352 152.37ZM285.758 162.108C284.738 162.108 283.838 161.898 283.058 161.478C282.29 161.058 281.69 160.482 281.258 159.75C280.838 159.018 280.628 158.178 280.628 157.23C280.628 156.282 280.832 155.442 281.24 154.71C281.66 153.978 282.23 153.408 282.95 153C283.682 152.58 284.504 152.37 285.416 152.37C286.34 152.37 287.156 152.574 287.864 152.982C288.572 153.39 289.124 153.966 289.52 154.71C289.928 155.442 290.132 156.3 290.132 157.284C290.132 157.356 290.126 157.44 290.114 157.536C290.114 157.632 290.108 157.722 290.096 157.806H281.978V156.564H289.196L288.494 156.996C288.506 156.384 288.38 155.838 288.116 155.358C287.852 154.878 287.486 154.506 287.018 154.242C286.562 153.966 286.028 153.828 285.416 153.828C284.816 153.828 284.282 153.966 283.814 154.242C283.346 154.506 282.98 154.884 282.716 155.376C282.452 155.856 282.32 156.408 282.32 157.032V157.32C282.32 157.956 282.464 158.526 282.752 159.03C283.052 159.522 283.466 159.906 283.994 160.182C284.522 160.458 285.128 160.596 285.812 160.596C286.376 160.596 286.886 160.5 287.342 160.308C287.81 160.116 288.218 159.828 288.566 159.444L289.52 160.56C289.088 161.064 288.548 161.448 287.9 161.712C287.264 161.976 286.55 162.108 285.758 162.108ZM292.532 162V152.46H294.188V155.052L294.026 154.404C294.29 153.744 294.734 153.24 295.358 152.892C295.982 152.544 296.75 152.37 297.662 152.37V154.044C297.59 154.032 297.518 154.026 297.446 154.026C297.386 154.026 297.326 154.026 297.266 154.026C296.342 154.026 295.61 154.302 295.07 154.854C294.53 155.406 294.26 156.204 294.26 157.248V162H292.532ZM303.951 162.108C302.931 162.108 302.031 161.898 301.251 161.478C300.483 161.058 299.883 160.482 299.451 159.75C299.031 159.018 298.821 158.178 298.821 157.23C298.821 156.282 299.025 155.442 299.433 154.71C299.853 153.978 300.423 153.408 301.143 153C301.875 152.58 302.697 152.37 303.609 152.37C304.533 152.37 305.349 152.574 306.057 152.982C306.765 153.39 307.317 153.966 307.713 154.71C308.121 155.442 308.325 156.3 308.325 157.284C308.325 157.356 308.319 157.44 308.307 157.536C308.307 157.632 308.301 157.722 308.289 157.806H300.171V156.564H307.389L306.687 156.996C306.699 156.384 306.573 155.838 306.309 155.358C306.045 154.878 305.679 154.506 305.211 154.242C304.755 153.966 304.221 153.828 303.609 153.828C303.009 153.828 302.475 153.966 302.007 154.242C301.539 154.506 301.173 154.884 300.909 155.376C300.645 155.856 300.513 156.408 300.513 157.032V157.32C300.513 157.956 300.657 158.526 300.945 159.03C301.245 159.522 301.659 159.906 302.187 160.182C302.715 160.458 303.321 160.596 304.005 160.596C304.569 160.596 305.079 160.5 305.535 160.308C306.003 160.116 306.411 159.828 306.759 159.444L307.713 160.56C307.281 161.064 306.741 161.448 306.093 161.712C305.457 161.976 304.743 162.108 303.951 162.108ZM139.545 174.37C140.325 174.37 141.009 174.52 141.597 174.82C142.197 175.12 142.665 175.576 143.001 176.188C143.337 176.8 143.505 177.574 143.505 178.51V184H141.777V178.708C141.777 177.784 141.549 177.088 141.093 176.62C140.649 176.152 140.019 175.918 139.203 175.918C138.591 175.918 138.057 176.038 137.601 176.278C137.145 176.518 136.791 176.872 136.539 177.34C136.299 177.808 136.179 178.39 136.179 179.086V184H134.451V174.46H136.107V177.034L135.837 176.35C136.149 175.726 136.629 175.24 137.277 174.892C137.925 174.544 138.681 174.37 139.545 174.37ZM150.951 184.108C149.931 184.108 149.031 183.898 148.251 183.478C147.483 183.058 146.883 182.482 146.451 181.75C146.031 181.018 145.821 180.178 145.821 179.23C145.821 178.282 146.025 177.442 146.433 176.71C146.853 175.978 147.423 175.408 148.143 175C148.875 174.58 149.697 174.37 150.609 174.37C151.533 174.37 152.349 174.574 153.057 174.982C153.765 175.39 154.317 175.966 154.713 176.71C155.121 177.442 155.325 178.3 155.325 179.284C155.325 179.356 155.319 179.44 155.307 179.536C155.307 179.632 155.301 179.722 155.289 179.806H147.171V178.564H154.389L153.687 178.996C153.699 178.384 153.573 177.838 153.309 177.358C153.045 176.878 152.679 176.506 152.211 176.242C151.755 175.966 151.221 175.828 150.609 175.828C150.009 175.828 149.475 175.966 149.007 176.242C148.539 176.506 148.173 176.884 147.909 177.376C147.645 177.856 147.513 178.408 147.513 179.032V179.32C147.513 179.956 147.657 180.526 147.945 181.03C148.245 181.522 148.659 181.906 149.187 182.182C149.715 182.458 150.321 182.596 151.005 182.596C151.569 182.596 152.079 182.5 152.535 182.308C153.003 182.116 153.411 181.828 153.759 181.444L154.713 182.56C154.281 183.064 153.741 183.448 153.093 183.712C152.457 183.976 151.743 184.108 150.951 184.108ZM161.973 184.108C160.953 184.108 160.053 183.898 159.273 183.478C158.505 183.058 157.905 182.482 157.473 181.75C157.053 181.018 156.843 180.178 156.843 179.23C156.843 178.282 157.047 177.442 157.455 176.71C157.875 175.978 158.445 175.408 159.165 175C159.897 174.58 160.719 174.37 161.631 174.37C162.555 174.37 163.371 174.574 164.079 174.982C164.787 175.39 165.339 175.966 165.735 176.71C166.143 177.442 166.347 178.3 166.347 179.284C166.347 179.356 166.341 179.44 166.329 179.536C166.329 179.632 166.323 179.722 166.311 179.806H158.193V178.564H165.411L164.709 178.996C164.721 178.384 164.595 177.838 164.331 177.358C164.067 176.878 163.701 176.506 163.233 176.242C162.777 175.966 162.243 175.828 161.631 175.828C161.031 175.828 160.497 175.966 160.029 176.242C159.561 176.506 159.195 176.884 158.931 177.376C158.667 177.856 158.535 178.408 158.535 179.032V179.32C158.535 179.956 158.679 180.526 158.967 181.03C159.267 181.522 159.681 181.906 160.209 182.182C160.737 182.458 161.343 182.596 162.027 182.596C162.591 182.596 163.101 182.5 163.557 182.308C164.025 182.116 164.433 181.828 164.781 181.444L165.735 182.56C165.303 183.064 164.763 183.448 164.115 183.712C163.479 183.976 162.765 184.108 161.973 184.108ZM172.688 184.108C171.764 184.108 170.936 183.904 170.204 183.496C169.484 183.088 168.914 182.518 168.494 181.786C168.074 181.054 167.864 180.202 167.864 179.23C167.864 178.258 168.074 177.412 168.494 176.692C168.914 175.96 169.484 175.39 170.204 174.982C170.936 174.574 171.764 174.37 172.688 174.37C173.492 174.37 174.218 174.55 174.866 174.91C175.514 175.27 176.03 175.81 176.414 176.53C176.81 177.25 177.008 178.15 177.008 179.23C177.008 180.31 176.816 181.21 176.432 181.93C176.06 182.65 175.55 183.196 174.902 183.568C174.254 183.928 173.516 184.108 172.688 184.108ZM172.832 182.596C173.432 182.596 173.972 182.458 174.452 182.182C174.944 181.906 175.328 181.516 175.604 181.012C175.892 180.496 176.036 179.902 176.036 179.23C176.036 178.546 175.892 177.958 175.604 177.466C175.328 176.962 174.944 176.572 174.452 176.296C173.972 176.02 173.432 175.882 172.832 175.882C172.22 175.882 171.674 176.02 171.194 176.296C170.714 176.572 170.33 176.962 170.042 177.466C169.754 177.958 169.61 178.546 169.61 179.23C169.61 179.902 169.754 180.496 170.042 181.012C170.33 181.516 170.714 181.906 171.194 182.182C171.674 182.458 172.22 182.596 172.832 182.596ZM176.09 184V181.426L176.198 179.212L176.018 176.998V170.644H177.746V184H176.09ZM183.752 184.108C182.96 184.108 182.204 184 181.484 183.784C180.776 183.568 180.218 183.304 179.81 182.992L180.53 181.624C180.938 181.9 181.442 182.134 182.042 182.326C182.642 182.518 183.254 182.614 183.878 182.614C184.682 182.614 185.258 182.5 185.606 182.272C185.966 182.044 186.146 181.726 186.146 181.318C186.146 181.018 186.038 180.784 185.822 180.616C185.606 180.448 185.318 180.322 184.958 180.238C184.61 180.154 184.22 180.082 183.788 180.022C183.356 179.95 182.924 179.866 182.492 179.77C182.06 179.662 181.664 179.518 181.304 179.338C180.944 179.146 180.656 178.888 180.44 178.564C180.224 178.228 180.116 177.784 180.116 177.232C180.116 176.656 180.278 176.152 180.602 175.72C180.926 175.288 181.382 174.958 181.97 174.73C182.57 174.49 183.278 174.37 184.094 174.37C184.718 174.37 185.348 174.448 185.984 174.604C186.632 174.748 187.16 174.958 187.568 175.234L186.83 176.602C186.398 176.314 185.948 176.116 185.48 176.008C185.012 175.9 184.544 175.846 184.076 175.846C183.32 175.846 182.756 175.972 182.384 176.224C182.012 176.464 181.826 176.776 181.826 177.16C181.826 177.484 181.934 177.736 182.15 177.916C182.378 178.084 182.666 178.216 183.014 178.312C183.374 178.408 183.77 178.492 184.202 178.564C184.634 178.624 185.066 178.708 185.498 178.816C185.93 178.912 186.32 179.05 186.668 179.23C187.028 179.41 187.316 179.662 187.532 179.986C187.76 180.31 187.874 180.742 187.874 181.282C187.874 181.858 187.706 182.356 187.37 182.776C187.034 183.196 186.56 183.526 185.948 183.766C185.336 183.994 184.604 184.108 183.752 184.108ZM198.953 184.108C197.993 184.108 197.141 183.898 196.397 183.478C195.653 183.058 195.065 182.482 194.633 181.75C194.201 181.006 193.985 180.166 193.985 179.23C193.985 178.282 194.201 177.442 194.633 176.71C195.065 175.978 195.653 175.408 196.397 175C197.141 174.58 197.993 174.37 198.953 174.37C199.901 174.37 200.747 174.58 201.491 175C202.247 175.408 202.835 175.978 203.255 176.71C203.687 177.43 203.903 178.27 203.903 179.23C203.903 180.178 203.687 181.018 203.255 181.75C202.835 182.482 202.247 183.058 201.491 183.478C200.747 183.898 199.901 184.108 198.953 184.108ZM198.953 182.596C199.565 182.596 200.111 182.458 200.591 182.182C201.083 181.906 201.467 181.516 201.743 181.012C202.019 180.496 202.157 179.902 202.157 179.23C202.157 178.546 202.019 177.958 201.743 177.466C201.467 176.962 201.083 176.572 200.591 176.296C200.111 176.02 199.565 175.882 198.953 175.882C198.341 175.882 197.795 176.02 197.315 176.296C196.835 176.572 196.451 176.962 196.163 177.466C195.875 177.958 195.731 178.546 195.731 179.23C195.731 179.902 195.875 180.496 196.163 181.012C196.451 181.516 196.835 181.906 197.315 182.182C197.795 182.458 198.341 182.596 198.953 182.596ZM206.545 184V173.614C206.545 172.678 206.815 171.934 207.355 171.382C207.907 170.818 208.687 170.536 209.695 170.536C210.067 170.536 210.421 170.584 210.757 170.68C211.105 170.764 211.399 170.902 211.639 171.094L211.117 172.408C210.937 172.264 210.733 172.156 210.505 172.084C210.277 172 210.037 171.958 209.785 171.958C209.281 171.958 208.897 172.102 208.633 172.39C208.369 172.666 208.237 173.08 208.237 173.632V174.91L208.273 175.702V184H206.545ZM204.925 175.882V174.46H211.009V175.882H204.925ZM217.887 187.6C217.431 187.6 216.987 187.522 216.555 187.366C216.123 187.222 215.751 187.006 215.439 186.718L216.177 185.422C216.417 185.65 216.681 185.824 216.969 185.944C217.257 186.064 217.563 186.124 217.887 186.124C218.307 186.124 218.655 186.016 218.931 185.8C219.207 185.584 219.465 185.2 219.705 184.648L220.299 183.334L220.479 183.118L224.223 174.46H225.915L221.289 184.954C221.013 185.626 220.701 186.154 220.353 186.538C220.017 186.922 219.645 187.192 219.237 187.348C218.829 187.516 218.379 187.6 217.887 187.6ZM220.155 184.306L215.799 174.46H217.599L221.307 182.956L220.155 184.306ZM231.35 184.108C230.39 184.108 229.538 183.898 228.794 183.478C228.05 183.058 227.462 182.482 227.03 181.75C226.598 181.006 226.382 180.166 226.382 179.23C226.382 178.282 226.598 177.442 227.03 176.71C227.462 175.978 228.05 175.408 228.794 175C229.538 174.58 230.39 174.37 231.35 174.37C232.298 174.37 233.144 174.58 233.888 175C234.644 175.408 235.232 175.978 235.652 176.71C236.084 177.43 236.3 178.27 236.3 179.23C236.3 180.178 236.084 181.018 235.652 181.75C235.232 182.482 234.644 183.058 233.888 183.478C233.144 183.898 232.298 184.108 231.35 184.108ZM231.35 182.596C231.962 182.596 232.508 182.458 232.988 182.182C233.48 181.906 233.864 181.516 234.14 181.012C234.416 180.496 234.554 179.902 234.554 179.23C234.554 178.546 234.416 177.958 234.14 177.466C233.864 176.962 233.48 176.572 232.988 176.296C232.508 176.02 231.962 175.882 231.35 175.882C230.738 175.882 230.192 176.02 229.712 176.296C229.232 176.572 228.848 176.962 228.56 177.466C228.272 177.958 228.128 178.546 228.128 179.23C228.128 179.902 228.272 180.496 228.56 181.012C228.848 181.516 229.232 181.906 229.712 182.182C230.192 182.458 230.738 182.596 231.35 182.596ZM242.704 184.108C241.888 184.108 241.168 183.958 240.544 183.658C239.932 183.358 239.452 182.902 239.104 182.29C238.768 181.666 238.6 180.886 238.6 179.95V174.46H240.328V179.752C240.328 180.688 240.55 181.39 240.994 181.858C241.45 182.326 242.086 182.56 242.902 182.56C243.502 182.56 244.024 182.44 244.468 182.2C244.912 181.948 245.254 181.588 245.494 181.12C245.734 180.64 245.854 180.064 245.854 179.392V174.46H247.582V184H245.944V181.426L246.214 182.11C245.902 182.746 245.434 183.238 244.81 183.586C244.186 183.934 243.484 184.108 242.704 184.108ZM250.871 184V174.46H252.527V177.052L252.365 176.404C252.629 175.744 253.073 175.24 253.697 174.892C254.321 174.544 255.089 174.37 256.001 174.37V176.044C255.929 176.032 255.857 176.026 255.785 176.026C255.725 176.026 255.665 176.026 255.605 176.026C254.681 176.026 253.949 176.302 253.409 176.854C252.869 177.406 252.599 178.204 252.599 179.248V184H250.871ZM267.246 184.108C266.274 184.108 265.404 183.898 264.636 183.478C263.88 183.058 263.286 182.482 262.854 181.75C262.422 181.018 262.206 180.178 262.206 179.23C262.206 178.282 262.422 177.442 262.854 176.71C263.286 175.978 263.88 175.408 264.636 175C265.404 174.58 266.274 174.37 267.246 174.37C268.11 174.37 268.878 174.544 269.55 174.892C270.234 175.228 270.762 175.732 271.134 176.404L269.82 177.25C269.508 176.782 269.124 176.44 268.668 176.224C268.224 175.996 267.744 175.882 267.228 175.882C266.604 175.882 266.046 176.02 265.554 176.296C265.062 176.572 264.672 176.962 264.384 177.466C264.096 177.958 263.952 178.546 263.952 179.23C263.952 179.914 264.096 180.508 264.384 181.012C264.672 181.516 265.062 181.906 265.554 182.182C266.046 182.458 266.604 182.596 267.228 182.596C267.744 182.596 268.224 182.488 268.668 182.272C269.124 182.044 269.508 181.696 269.82 181.228L271.134 182.056C270.762 182.716 270.234 183.226 269.55 183.586C268.878 183.934 268.11 184.108 267.246 184.108ZM278.342 174.37C279.122 174.37 279.806 174.52 280.394 174.82C280.994 175.12 281.462 175.576 281.798 176.188C282.134 176.8 282.302 177.574 282.302 178.51V184H280.574V178.708C280.574 177.784 280.346 177.088 279.89 176.62C279.446 176.152 278.816 175.918 278 175.918C277.388 175.918 276.854 176.038 276.398 176.278C275.942 176.518 275.588 176.872 275.336 177.34C275.096 177.808 274.976 178.39 274.976 179.086V184H273.248V170.644H274.976V177.034L274.634 176.35C274.946 175.726 275.426 175.24 276.074 174.892C276.722 174.544 277.478 174.37 278.342 174.37ZM285.5 184V174.46H287.228V184H285.5ZM286.364 172.624C286.028 172.624 285.746 172.516 285.518 172.3C285.302 172.084 285.194 171.82 285.194 171.508C285.194 171.184 285.302 170.914 285.518 170.698C285.746 170.482 286.028 170.374 286.364 170.374C286.7 170.374 286.976 170.482 287.192 170.698C287.42 170.902 287.534 171.16 287.534 171.472C287.534 171.796 287.426 172.072 287.21 172.3C286.994 172.516 286.712 172.624 286.364 172.624ZM290.528 184V170.644H292.256V184H290.528ZM299.497 184.108C298.573 184.108 297.745 183.904 297.013 183.496C296.293 183.088 295.723 182.518 295.303 181.786C294.883 181.054 294.673 180.202 294.673 179.23C294.673 178.258 294.883 177.412 295.303 176.692C295.723 175.96 296.293 175.39 297.013 174.982C297.745 174.574 298.573 174.37 299.497 174.37C300.301 174.37 301.027 174.55 301.675 174.91C302.323 175.27 302.839 175.81 303.223 176.53C303.619 177.25 303.817 178.15 303.817 179.23C303.817 180.31 303.625 181.21 303.241 181.93C302.869 182.65 302.359 183.196 301.711 183.568C301.063 183.928 300.325 184.108 299.497 184.108ZM299.641 182.596C300.241 182.596 300.781 182.458 301.261 182.182C301.753 181.906 302.137 181.516 302.413 181.012C302.701 180.496 302.845 179.902 302.845 179.23C302.845 178.546 302.701 177.958 302.413 177.466C302.137 176.962 301.753 176.572 301.261 176.296C300.781 176.02 300.241 175.882 299.641 175.882C299.029 175.882 298.483 176.02 298.003 176.296C297.523 176.572 297.139 176.962 296.851 177.466C296.563 177.958 296.419 178.546 296.419 179.23C296.419 179.902 296.563 180.496 296.851 181.012C297.139 181.516 297.523 181.906 298.003 182.182C298.483 182.458 299.029 182.596 299.641 182.596ZM302.899 184V181.426L303.007 179.212L302.827 176.998V170.644H304.555V184H302.899Z" fill="#616161"/>
</svg>
