<svg width="25" height="24" viewBox="0 0 25 24" fill="none" xmlns="http://www.w3.org/2000/svg">
<g clip-path="url(#clip0_347_3005)">
<path d="M12.123 4.5C7.12305 4.5 2.85305 7.61 1.12305 12C2.85305 16.39 7.12305 19.5 12.123 19.5C17.123 19.5 21.393 16.39 23.123 12C21.393 7.61 17.123 4.5 12.123 4.5ZM12.123 17C9.36305 17 7.12305 14.76 7.12305 12C7.12305 9.24 9.36305 7 12.123 7C14.883 7 17.123 9.24 17.123 12C17.123 14.76 14.883 17 12.123 17ZM12.123 9C10.463 9 9.12305 10.34 9.12305 12C9.12305 13.66 10.463 15 12.123 15C13.783 15 15.123 13.66 15.123 12C15.123 10.34 13.783 9 12.123 9Z" fill="#1D2E3D"/>
</g>
<defs>
<clipPath id="clip0_347_3005">
<rect width="24" height="24" fill="white" transform="translate(0.123047)"/>
</clipPath>
</defs>
</svg>
