<svg
  width="23"
  height="16"
  viewBox="0 0 23 16"
  fill="none"
  xmlns="http://www.w3.org/2000/svg"
>
    <path
    d="M11.123 0.5C6.12305 0.5 1.85305 3.61 0.123047 8C1.85305 12.39 6.12305 15.5 11.123 15.5C16.123 15.5 20.393 12.39 22.123 8C20.393 3.61 16.123 0.5 11.123 0.5ZM11.123 13C8.36305 13 6.12305 10.76 6.12305 8C6.12305 5.24 8.36305 3 11.123 3C13.883 3 16.123 5.24 16.123 8C16.123 10.76 13.883 13 11.123 13ZM11.123 5C9.46305 5 8.12305 6.34 8.12305 8C8.12305 9.66 9.46305 11 11.123 11C12.783 11 14.123 9.66 14.123 8C14.123 6.34 12.783 5 11.123 5Z"
    fill="#1D2E3D"
  />
  </svg>
