<svg width="20" height="21" viewBox="0 0 20 21" fill="none" xmlns="http://www.w3.org/2000/svg">
<path d="M15.34 3.46879C15.1027 3.46879 14.8707 3.53917 14.6733 3.67103C14.476 3.80288 14.3222 3.9903 14.2313 4.20957C14.1405 4.42884 14.1168 4.67012 14.1631 4.9029C14.2094 5.13567 14.3236 5.34949 14.4915 5.51732C14.6593 5.68514 14.8731 5.79943 15.1059 5.84573C15.3387 5.89203 15.5799 5.86827 15.7992 5.77744C16.0185 5.68662 16.2059 5.53281 16.3378 5.33547C16.4696 5.13813 16.54 4.90613 16.54 4.66879C16.54 4.35053 16.4136 4.0453 16.1885 3.82026C15.9635 3.59522 15.6583 3.46879 15.34 3.46879ZM19.94 5.88879C19.9206 5.05909 19.7652 4.23819 19.48 3.45879C19.2257 2.79192 18.83 2.18807 18.32 1.68879C17.8248 1.17622 17.2196 0.782966 16.55 0.538789C15.7727 0.24495 14.9508 0.0859991 14.12 0.068789C13.06 0.00878901 12.72 0.00878906 10 0.00878906C7.28 0.00878906 6.94 0.00878901 5.88 0.068789C5.04915 0.0859991 4.22734 0.24495 3.45 0.538789C2.78168 0.785438 2.17693 1.17835 1.68 1.68879C1.16743 2.18397 0.774176 2.78923 0.53 3.45879C0.236161 4.23613 0.07721 5.05794 0.0599999 5.88879C-5.58794e-08 6.94879 0 7.28879 0 10.0088C0 12.7288 -5.58794e-08 13.0688 0.0599999 14.1288C0.07721 14.9596 0.236161 15.7814 0.53 16.5588C0.774176 17.2283 1.16743 17.8336 1.68 18.3288C2.17693 18.8392 2.78168 19.2321 3.45 19.4788C4.22734 19.7726 5.04915 19.9316 5.88 19.9488C6.94 20.0088 7.28 20.0088 10 20.0088C12.72 20.0088 13.06 20.0088 14.12 19.9488C14.9508 19.9316 15.7727 19.7726 16.55 19.4788C17.2196 19.2346 17.8248 18.8414 18.32 18.3288C18.8322 17.8314 19.2283 17.227 19.48 16.5588C19.7652 15.7794 19.9206 14.9585 19.94 14.1288C19.94 13.0688 20 12.7288 20 10.0088C20 7.28879 20 6.94879 19.94 5.88879ZM18.14 14.0088C18.1327 14.6436 18.0178 15.2725 17.8 15.8688C17.6403 16.304 17.3839 16.6972 17.05 17.0188C16.7256 17.3493 16.3332 17.6052 15.9 17.7688C15.3037 17.9865 14.6748 18.1015 14.04 18.1088C13.04 18.1588 12.67 18.1688 10.04 18.1688C7.41 18.1688 7.04 18.1688 6.04 18.1088C5.38089 18.1211 4.72459 18.0196 4.1 17.8088C3.68578 17.6369 3.31136 17.3816 3 17.0588C2.66809 16.7375 2.41484 16.344 2.26 15.9088C2.01586 15.3039 1.88044 14.6607 1.86 14.0088C1.86 13.0088 1.8 12.6388 1.8 10.0088C1.8 7.37879 1.8 7.00879 1.86 6.00879C1.86448 5.35984 1.98295 4.71673 2.21 4.10879C2.38605 3.6867 2.65627 3.31045 3 3.00879C3.30381 2.66496 3.67929 2.39188 4.1 2.20879C4.70955 1.98883 5.352 1.87387 6 1.86879C7 1.86879 7.37 1.80879 10 1.80879C12.63 1.80879 13 1.80879 14 1.86879C14.6348 1.87607 15.2637 1.99104 15.86 2.20879C16.3144 2.37744 16.7223 2.65164 17.05 3.00879C17.3777 3.31597 17.6338 3.69152 17.8 4.10879C18.0223 4.71772 18.1373 5.36057 18.14 6.00879C18.19 7.00879 18.2 7.37879 18.2 10.0088C18.2 12.6388 18.19 13.0088 18.14 14.0088ZM10 4.87879C8.98581 4.88077 7.99496 5.18331 7.15265 5.74821C6.31035 6.3131 5.65438 7.11499 5.26763 8.05254C4.88089 8.9901 4.78072 10.0213 4.97979 11.0157C5.17886 12.0102 5.66824 12.9233 6.38608 13.6398C7.10392 14.3562 8.01801 14.8438 9.01286 15.0409C10.0077 15.2381 11.0387 15.1359 11.9755 14.7473C12.9123 14.3588 13.7129 13.7012 14.2761 12.8578C14.8394 12.0144 15.14 11.023 15.14 10.0088C15.1413 9.33389 15.0092 8.6654 14.7512 8.04175C14.4933 7.41809 14.1146 6.8516 13.6369 6.37484C13.1592 5.89808 12.5919 5.52047 11.9678 5.26372C11.3436 5.00697 10.6749 4.87615 10 4.87879ZM10 13.3388C9.34139 13.3388 8.69757 13.1435 8.14995 12.7776C7.60234 12.4117 7.17552 11.8916 6.92348 11.2831C6.67144 10.6746 6.6055 10.0051 6.73398 9.35914C6.86247 8.71318 7.17963 8.11983 7.64533 7.65412C8.11104 7.18841 8.70439 6.87126 9.35035 6.74277C9.99631 6.61429 10.6659 6.68023 11.2743 6.93227C11.8828 7.18431 12.4029 7.61112 12.7688 8.15874C13.1347 8.70636 13.33 9.35018 13.33 10.0088C13.33 10.4461 13.2439 10.8791 13.0765 11.2831C12.9092 11.6871 12.6639 12.0542 12.3547 12.3635C12.0454 12.6727 11.6784 12.918 11.2743 13.0853C10.8703 13.2527 10.4373 13.3388 10 13.3388Z" fill="white"/>
</svg>
