<svg width="193" height="146" viewBox="0 0 193 146" fill="none" xmlns="http://www.w3.org/2000/svg">
<path d="M162.844 12.6875C164.443 12.6875 165.977 13.3229 167.108 14.454C168.24 15.5851 168.875 17.1192 168.875 18.7188V109.188H24.125V18.7188C24.125 17.1192 24.7604 15.5851 25.8915 14.454C27.0226 13.3229 28.5567 12.6875 30.1562 12.6875H162.844ZM30.1562 0.625C25.3575 0.625 20.7553 2.5313 17.362 5.92454C13.9688 9.31777 12.0625 13.92 12.0625 18.7188V121.25H180.938V18.7188C180.938 13.92 179.031 9.31777 175.638 5.92454C172.245 2.5313 167.643 0.625 162.844 0.625H30.1562ZM0 127.281H193C193 132.08 191.094 136.682 187.7 140.075C184.307 143.469 179.705 145.375 174.906 145.375H18.0938C13.295 145.375 8.69277 143.469 5.29954 140.075C1.9063 136.682 0 132.08 0 127.281H0Z" fill="#616161"/>
</svg>
