<svg width="193" height="253" viewBox="0 0 193 253" fill="none" xmlns="http://www.w3.org/2000/svg">
<path d="M52.6883 240.792H58.3283V243H49.9523V226.32H52.6883V240.792ZM59.7044 236.328C59.7044 235 59.9764 233.824 60.5204 232.8C61.0804 231.776 61.8324 230.984 62.7764 230.424C63.7364 229.848 64.7924 229.56 65.9444 229.56C66.9844 229.56 67.8884 229.768 68.6564 230.184C69.4404 230.584 70.0644 231.088 70.5284 231.696V229.776H73.2884V243H70.5284V241.032C70.0644 241.656 69.4324 242.176 68.6324 242.592C67.8324 243.008 66.9204 243.216 65.8964 243.216C64.7604 243.216 63.7204 242.928 62.7764 242.352C61.8324 241.76 61.0804 240.944 60.5204 239.904C59.9764 238.848 59.7044 237.656 59.7044 236.328ZM70.5284 236.376C70.5284 235.464 70.3364 234.672 69.9524 234C69.5844 233.328 69.0964 232.816 68.4884 232.464C67.8804 232.112 67.2244 231.936 66.5204 231.936C65.8164 231.936 65.1604 232.112 64.5524 232.464C63.9444 232.8 63.4484 233.304 63.0644 233.976C62.6964 234.632 62.5124 235.416 62.5124 236.328C62.5124 237.24 62.6964 238.04 63.0644 238.728C63.4484 239.416 63.9444 239.944 64.5524 240.312C65.1764 240.664 65.8324 240.84 66.5204 240.84C67.2244 240.84 67.8804 240.664 68.4884 240.312C69.0964 239.96 69.5844 239.448 69.9524 238.776C70.3364 238.088 70.5284 237.288 70.5284 236.376ZM79.618 231.72C80.082 231.112 80.714 230.6 81.514 230.184C82.314 229.768 83.218 229.56 84.226 229.56C85.378 229.56 86.426 229.848 87.37 230.424C88.33 230.984 89.082 231.776 89.626 232.8C90.17 233.824 90.442 235 90.442 236.328C90.442 237.656 90.17 238.848 89.626 239.904C89.082 240.944 88.33 241.76 87.37 242.352C86.426 242.928 85.378 243.216 84.226 243.216C83.218 243.216 82.322 243.016 81.538 242.616C80.754 242.2 80.114 241.688 79.618 241.08V249.288H76.882V229.776H79.618V231.72ZM87.658 236.328C87.658 235.416 87.466 234.632 87.082 233.976C86.714 233.304 86.218 232.8 85.594 232.464C84.986 232.112 84.33 231.936 83.626 231.936C82.938 231.936 82.282 232.112 81.658 232.464C81.05 232.816 80.554 233.328 80.17 234C79.802 234.672 79.618 235.464 79.618 236.376C79.618 237.288 79.802 238.088 80.17 238.776C80.554 239.448 81.05 239.96 81.658 240.312C82.282 240.664 82.938 240.84 83.626 240.84C84.33 240.84 84.986 240.664 85.594 240.312C86.218 239.944 86.714 239.416 87.082 238.728C87.466 238.04 87.658 237.24 87.658 236.328ZM96.3397 232.008V239.328C96.3397 239.824 96.4517 240.184 96.6757 240.408C96.9157 240.616 97.3157 240.72 97.8757 240.72H99.5557V243H97.3957C96.1637 243 95.2197 242.712 94.5637 242.136C93.9077 241.56 93.5797 240.624 93.5797 239.328V232.008H92.0197V229.776H93.5797V226.488H96.3397V229.776H99.5557V232.008H96.3397ZM107.813 243.216C106.565 243.216 105.437 242.936 104.429 242.376C103.421 241.8 102.629 241 102.053 239.976C101.477 238.936 101.189 237.736 101.189 236.376C101.189 235.032 101.485 233.84 102.077 232.8C102.669 231.76 103.477 230.96 104.501 230.4C105.525 229.84 106.669 229.56 107.933 229.56C109.197 229.56 110.341 229.84 111.365 230.4C112.389 230.96 113.197 231.76 113.789 232.8C114.381 233.84 114.677 235.032 114.677 236.376C114.677 237.72 114.373 238.912 113.765 239.952C113.157 240.992 112.325 241.8 111.269 242.376C110.229 242.936 109.077 243.216 107.813 243.216ZM107.813 240.84C108.517 240.84 109.173 240.672 109.781 240.336C110.405 240 110.909 239.496 111.293 238.824C111.677 238.152 111.869 237.336 111.869 236.376C111.869 235.416 111.685 234.608 111.317 233.952C110.949 233.28 110.461 232.776 109.853 232.44C109.245 232.104 108.589 231.936 107.885 231.936C107.181 231.936 106.525 232.104 105.917 232.44C105.325 232.776 104.853 233.28 104.501 233.952C104.149 234.608 103.973 235.416 103.973 236.376C103.973 237.8 104.333 238.904 105.053 239.688C105.789 240.456 106.709 240.84 107.813 240.84ZM120.118 231.72C120.582 231.112 121.214 230.6 122.014 230.184C122.814 229.768 123.718 229.56 124.726 229.56C125.878 229.56 126.926 229.848 127.87 230.424C128.83 230.984 129.582 231.776 130.126 232.8C130.67 233.824 130.942 235 130.942 236.328C130.942 237.656 130.67 238.848 130.126 239.904C129.582 240.944 128.83 241.76 127.87 242.352C126.926 242.928 125.878 243.216 124.726 243.216C123.718 243.216 122.822 243.016 122.038 242.616C121.254 242.2 120.614 241.688 120.118 241.08V249.288H117.382V229.776H120.118V231.72ZM128.158 236.328C128.158 235.416 127.966 234.632 127.582 233.976C127.214 233.304 126.718 232.8 126.094 232.464C125.486 232.112 124.83 231.936 124.126 231.936C123.438 231.936 122.782 232.112 122.158 232.464C121.55 232.816 121.054 233.328 120.67 234C120.302 234.672 120.118 235.464 120.118 236.376C120.118 237.288 120.302 238.088 120.67 238.776C121.054 239.448 121.55 239.96 122.158 240.312C122.782 240.664 123.438 240.84 124.126 240.84C124.83 240.84 125.486 240.664 126.094 240.312C126.718 239.944 127.214 239.416 127.582 238.728C127.966 238.04 128.158 237.24 128.158 236.328Z" fill="#212121"/>
<path d="M162.844 36.6875C164.443 36.6875 165.977 37.3229 167.108 38.454C168.24 39.5851 168.875 41.1192 168.875 42.7188V133.188H24.125V42.7188C24.125 41.1192 24.7604 39.5851 25.8915 38.454C27.0226 37.3229 28.5567 36.6875 30.1562 36.6875H162.844ZM30.1562 24.625C25.3575 24.625 20.7553 26.5313 17.362 29.9245C13.9688 33.3178 12.0625 37.92 12.0625 42.7188V145.25H180.938V42.7188C180.938 37.92 179.031 33.3178 175.638 29.9245C172.245 26.5313 167.643 24.625 162.844 24.625H30.1562ZM0 151.281H193C193 156.08 191.094 160.682 187.7 164.075C184.307 167.469 179.705 169.375 174.906 169.375H18.0938C13.295 169.375 8.69277 167.469 5.29954 164.075C1.9063 160.682 0 156.08 0 151.281H0Z" fill="#616161"/>
</svg>
