<svg width="20" height="21" viewBox="0 0 20 21" fill="none" xmlns="http://www.w3.org/2000/svg">
<path d="M18.4705 0.00892889H1.53055C1.34013 0.00628427 1.15105 0.0411764 0.974113 0.111613C0.797177 0.182049 0.63585 0.28665 0.499344 0.419441C0.362839 0.552232 0.253828 0.710613 0.178539 0.885538C0.103249 1.06046 0.0631553 1.24851 0.0605469 1.43893V18.5789C0.0631553 18.7694 0.103249 18.9574 0.178539 19.1323C0.253828 19.3072 0.362839 19.4656 0.499344 19.5984C0.63585 19.7312 0.797177 19.8358 0.974113 19.9062C1.15105 19.9767 1.34013 20.0116 1.53055 20.0089H18.4705C18.661 20.0116 18.85 19.9767 19.027 19.9062C19.2039 19.8358 19.3652 19.7312 19.5017 19.5984C19.6383 19.4656 19.7473 19.3072 19.8226 19.1323C19.8978 18.9574 19.9379 18.7694 19.9405 18.5789V1.43893C19.9379 1.24851 19.8978 1.06046 19.8226 0.885538C19.7473 0.710613 19.6383 0.552232 19.5017 0.419441C19.3652 0.28665 19.2039 0.182049 19.027 0.111613C18.85 0.0411764 18.661 0.00628427 18.4705 0.00892889ZM6.09055 16.7489H3.09055V7.74893H6.09055V16.7489ZM4.59055 6.48893C4.17681 6.48893 3.78002 6.32457 3.48746 6.03202C3.1949 5.73946 3.03055 5.34267 3.03055 4.92893C3.03055 4.51519 3.1949 4.1184 3.48746 3.82584C3.78002 3.53329 4.17681 3.36893 4.59055 3.36893C4.81024 3.34401 5.03272 3.36578 5.24342 3.43281C5.45412 3.49984 5.64829 3.61062 5.8132 3.75789C5.97812 3.90516 6.11007 4.08561 6.20042 4.28741C6.29076 4.48921 6.33746 4.70783 6.33746 4.92893C6.33746 5.15003 6.29076 5.36864 6.20042 5.57045C6.11007 5.77225 5.97812 5.9527 5.8132 6.09997C5.64829 6.24724 5.45412 6.35802 5.24342 6.42505C5.03272 6.49207 4.81024 6.51384 4.59055 6.48893ZM16.9105 16.7489H13.9105V11.9189C13.9105 10.7089 13.4805 9.91893 12.3905 9.91893C12.0532 9.9214 11.7247 10.0272 11.4494 10.2221C11.174 10.417 10.965 10.6916 10.8505 11.0089C10.7723 11.244 10.7384 11.4915 10.7505 11.7389V16.7389H7.75055C7.75055 16.7389 7.75055 8.55893 7.75055 7.73893H10.7505V9.00893C11.0231 8.53603 11.4195 8.14645 11.897 7.88213C12.3745 7.61781 12.9151 7.48878 13.4605 7.50893C15.4605 7.50893 16.9105 8.79893 16.9105 11.5689V16.7489Z" fill="white"/>
</svg>
