<svg width="34" height="44" viewBox="0 0 34 44" fill="none" xmlns="http://www.w3.org/2000/svg">
<path d="M29.4997 14.6663H27.4163V10.4997C27.4163 4.74967 22.7497 0.0830078 16.9997 0.0830078C11.2497 0.0830078 6.58301 4.74967 6.58301 10.4997V14.6663H4.49967C2.20801 14.6663 0.333008 16.5413 0.333008 18.833V39.6663C0.333008 41.958 2.20801 43.833 4.49967 43.833H29.4997C31.7913 43.833 33.6663 41.958 33.6663 39.6663V18.833C33.6663 16.5413 31.7913 14.6663 29.4997 14.6663ZM10.7497 10.4997C10.7497 7.04134 13.5413 4.24967 16.9997 4.24967C20.458 4.24967 23.2497 7.04134 23.2497 10.4997V14.6663H10.7497V10.4997ZM29.4997 39.6663H4.49967V18.833H29.4997V39.6663ZM16.9997 33.4163C19.2913 33.4163 21.1663 31.5413 21.1663 29.2497C21.1663 26.958 19.2913 25.083 16.9997 25.083C14.708 25.083 12.833 26.958 12.833 29.2497C12.833 31.5413 14.708 33.4163 16.9997 33.4163Z" fill="white"/>
</svg>
