<svg width="60" height="60" viewBox="0 0 60 60" fill="none" xmlns="http://www.w3.org/2000/svg">
<g clip-path="url(#clip0_787_2102)">
<path d="M30 20C32.75 20 35 17.75 35 15C35 12.25 32.75 10 30 10C27.25 10 25 12.25 25 15C25 17.75 27.25 20 30 20ZM30 25C27.25 25 25 27.25 25 30C25 32.75 27.25 35 30 35C32.75 35 35 32.75 35 30C35 27.25 32.75 25 30 25ZM30 40C27.25 40 25 42.25 25 45C25 47.75 27.25 50 30 50C32.75 50 35 47.75 35 45C35 42.25 32.75 40 30 40Z" fill="#323232"/>
</g>
<defs>
<clipPath id="clip0_787_2102">
<rect width="60" height="60" fill="white"/>
</clipPath>
</defs>
</svg>
