<svg width="216" height="252" viewBox="0 0 216 252" fill="none" xmlns="http://www.w3.org/2000/svg">
<path d="M92.6828 230.288C92.6828 231.136 92.4828 231.936 92.0828 232.688C91.6828 233.44 91.0428 234.056 90.1628 234.536C89.2828 235 88.1548 235.232 86.7788 235.232H83.7548V242H81.0188V225.32H86.7788C88.0588 225.32 89.1388 225.544 90.0188 225.992C90.9148 226.424 91.5788 227.016 92.0108 227.768C92.4588 228.52 92.6828 229.36 92.6828 230.288ZM86.7788 233C87.8188 233 88.5948 232.768 89.1068 232.304C89.6188 231.824 89.8748 231.152 89.8748 230.288C89.8748 228.464 88.8428 227.552 86.7788 227.552H83.7548V233H86.7788ZM102.132 228.56C103.14 228.56 104.036 228.776 104.82 229.208C105.62 229.64 106.244 230.28 106.692 231.128C107.156 231.976 107.388 233 107.388 234.2V242H104.676V234.608C104.676 233.424 104.38 232.52 103.788 231.896C103.196 231.256 102.388 230.936 101.364 230.936C100.34 230.936 99.5242 231.256 98.9162 231.896C98.3242 232.52 98.0282 233.424 98.0282 234.608V242H95.2922V224.24H98.0282V230.312C98.4922 229.752 99.0762 229.32 99.7802 229.016C100.5 228.712 101.284 228.56 102.132 228.56ZM116.614 242.216C115.366 242.216 114.238 241.936 113.23 241.376C112.222 240.8 111.43 240 110.854 238.976C110.278 237.936 109.99 236.736 109.99 235.376C109.99 234.032 110.286 232.84 110.878 231.8C111.47 230.76 112.278 229.96 113.302 229.4C114.326 228.84 115.47 228.56 116.734 228.56C117.998 228.56 119.142 228.84 120.166 229.4C121.19 229.96 121.998 230.76 122.59 231.8C123.182 232.84 123.478 234.032 123.478 235.376C123.478 236.72 123.174 237.912 122.566 238.952C121.958 239.992 121.126 240.8 120.07 241.376C119.03 241.936 117.878 242.216 116.614 242.216ZM116.614 239.84C117.318 239.84 117.974 239.672 118.582 239.336C119.206 239 119.71 238.496 120.094 237.824C120.478 237.152 120.67 236.336 120.67 235.376C120.67 234.416 120.486 233.608 120.118 232.952C119.75 232.28 119.262 231.776 118.654 231.44C118.046 231.104 117.39 230.936 116.686 230.936C115.982 230.936 115.326 231.104 114.718 231.44C114.126 231.776 113.654 232.28 113.302 232.952C112.95 233.608 112.774 234.416 112.774 235.376C112.774 236.8 113.134 237.904 113.854 238.688C114.59 239.456 115.51 239.84 116.614 239.84ZM132.855 228.56C133.895 228.56 134.823 228.776 135.639 229.208C136.471 229.64 137.119 230.28 137.583 231.128C138.047 231.976 138.279 233 138.279 234.2V242H135.567V234.608C135.567 233.424 135.271 232.52 134.679 231.896C134.087 231.256 133.279 230.936 132.255 230.936C131.231 230.936 130.415 231.256 129.807 231.896C129.215 232.52 128.919 233.424 128.919 234.608V242H126.183V228.776H128.919V230.288C129.367 229.744 129.935 229.32 130.623 229.016C131.327 228.712 132.071 228.56 132.855 228.56ZM153.889 235.064C153.889 235.56 153.857 236.008 153.793 236.408H143.689C143.769 237.464 144.161 238.312 144.865 238.952C145.569 239.592 146.433 239.912 147.457 239.912C148.929 239.912 149.969 239.296 150.577 238.064H153.529C153.129 239.28 152.401 240.28 151.345 241.064C150.305 241.832 149.009 242.216 147.457 242.216C146.193 242.216 145.057 241.936 144.049 241.376C143.057 240.8 142.273 240 141.697 238.976C141.137 237.936 140.857 236.736 140.857 235.376C140.857 234.016 141.129 232.824 141.673 231.8C142.233 230.76 143.009 229.96 144.001 229.4C145.009 228.84 146.161 228.56 147.457 228.56C148.705 228.56 149.817 228.832 150.793 229.376C151.769 229.92 152.529 230.688 153.073 231.68C153.617 232.656 153.889 233.784 153.889 235.064ZM151.033 234.2C151.017 233.192 150.657 232.384 149.953 231.776C149.249 231.168 148.377 230.864 147.337 230.864C146.393 230.864 145.585 231.168 144.913 231.776C144.241 232.368 143.841 233.176 143.713 234.2H151.033Z" fill="#212121"/>
<path d="M32.4016 48.6014C32.4016 44.3049 34.1083 40.1843 37.1464 37.1462C40.1845 34.1081 44.3051 32.4014 48.6016 32.4014H167.402C171.698 32.4014 175.819 34.1081 178.857 37.1462C181.895 40.1843 183.602 44.3049 183.602 48.6014V124.201C183.602 128.498 181.895 132.618 178.857 135.657C175.819 138.695 171.698 140.401 167.402 140.401H108.002V129.601H167.402C168.834 129.601 170.207 129.032 171.22 128.02C172.233 127.007 172.802 125.634 172.802 124.201V48.6014C172.802 47.1692 172.233 45.7957 171.22 44.783C170.207 43.7703 168.834 43.2014 167.402 43.2014H48.6016C47.1694 43.2014 45.7959 43.7703 44.7832 44.783C43.7705 45.7957 43.2016 47.1692 43.2016 48.6014V64.8014H32.4016V48.6014ZM108.002 162.001H189.002C190.434 162.001 191.807 161.432 192.82 160.42C193.833 159.407 194.402 158.034 194.402 156.601C194.402 155.169 193.833 153.796 192.82 152.783C191.807 151.77 190.434 151.201 189.002 151.201H108.002V162.001ZM54.0016 162.001C52.5694 162.001 51.1959 162.57 50.1832 163.583C49.1705 164.596 48.6016 165.969 48.6016 167.401C48.6016 168.834 49.1705 170.207 50.1832 171.22C51.1959 172.232 52.5694 172.801 54.0016 172.801H64.8016C66.2337 172.801 67.6072 172.232 68.6199 171.22C69.6326 170.207 70.2016 168.834 70.2016 167.401C70.2016 165.969 69.6326 164.596 68.6199 163.583C67.6072 162.57 66.2337 162.001 64.8016 162.001H54.0016ZM21.6016 91.8014C21.6016 87.5049 23.3083 83.3843 26.3464 80.3462C29.3845 77.3081 33.5051 75.6014 37.8016 75.6014H81.0016C85.2981 75.6014 89.4186 77.3081 92.4567 80.3462C95.4948 83.3843 97.2016 87.5049 97.2016 91.8014V178.201C97.2016 182.498 95.4948 186.618 92.4567 189.656C89.4186 192.695 85.2981 194.401 81.0016 194.401H37.8016C33.5051 194.401 29.3845 192.695 26.3464 189.656C23.3083 186.618 21.6016 182.498 21.6016 178.201V91.8014ZM37.8016 86.4014C36.3694 86.4014 34.9959 86.9703 33.9832 87.983C32.9705 88.9957 32.4016 90.3692 32.4016 91.8014V178.201C32.4016 179.634 32.9705 181.007 33.9832 182.02C34.9959 183.032 36.3694 183.601 37.8016 183.601H81.0016C82.4337 183.601 83.8072 183.032 84.8199 182.02C85.8326 181.007 86.4016 179.634 86.4016 178.201V91.8014C86.4016 90.3692 85.8326 88.9957 84.8199 87.983C83.8072 86.9703 82.4337 86.4014 81.0016 86.4014H37.8016Z" fill="#616161"/>
</svg>
