<svg width="174" height="163" viewBox="0 0 174 163" fill="none" xmlns="http://www.w3.org/2000/svg">
<path d="M11.4016 16.6014C11.4016 12.3049 13.1083 8.18433 16.1464 5.14624C19.1845 2.10815 23.3051 0.401367 27.6016 0.401367H146.402C150.698 0.401367 154.819 2.10815 157.857 5.14624C160.895 8.18433 162.602 12.3049 162.602 16.6014V92.2014C162.602 96.4979 160.895 100.618 157.857 103.657C154.819 106.695 150.698 108.401 146.402 108.401H87.0016V97.6014H146.402C147.834 97.6014 149.207 97.0324 150.22 96.0198C151.233 95.007 151.802 93.6335 151.802 92.2014V16.6014C151.802 15.1692 151.233 13.7957 150.22 12.783C149.207 11.7703 147.834 11.2014 146.402 11.2014H27.6016C26.1694 11.2014 24.7959 11.7703 23.7832 12.783C22.7705 13.7957 22.2016 15.1692 22.2016 16.6014V32.8014H11.4016V16.6014ZM87.0016 130.001H168.002C169.434 130.001 170.807 129.432 171.82 128.42C172.833 127.407 173.402 126.034 173.402 124.601C173.402 123.169 172.833 121.796 171.82 120.783C170.807 119.77 169.434 119.201 168.002 119.201H87.0016V130.001ZM33.0016 130.001C31.5694 130.001 30.1959 130.57 29.1832 131.583C28.1705 132.596 27.6016 133.969 27.6016 135.401C27.6016 136.834 28.1705 138.207 29.1832 139.22C30.1959 140.232 31.5694 140.801 33.0016 140.801H43.8016C45.2337 140.801 46.6072 140.232 47.6199 139.22C48.6326 138.207 49.2016 136.834 49.2016 135.401C49.2016 133.969 48.6326 132.596 47.6199 131.583C46.6072 130.57 45.2337 130.001 43.8016 130.001H33.0016ZM0.601562 59.8014C0.601562 55.5049 2.30834 51.3843 5.34643 48.3462C8.38452 45.3081 12.5051 43.6014 16.8016 43.6014H60.0016C64.2981 43.6014 68.4186 45.3081 71.4567 48.3462C74.4948 51.3843 76.2016 55.5049 76.2016 59.8014V146.201C76.2016 150.498 74.4948 154.618 71.4567 157.656C68.4186 160.695 64.2981 162.401 60.0016 162.401H16.8016C12.5051 162.401 8.38452 160.695 5.34643 157.656C2.30834 154.618 0.601563 150.498 0.601562 146.201V59.8014ZM16.8016 54.4014C15.3694 54.4014 13.9959 54.9703 12.9832 55.983C11.9705 56.9957 11.4016 58.3692 11.4016 59.8014V146.201C11.4016 147.634 11.9705 149.007 12.9832 150.02C13.9959 151.032 15.3694 151.601 16.8016 151.601H60.0016C61.4337 151.601 62.8072 151.032 63.8199 150.02C64.8326 149.007 65.4016 147.634 65.4016 146.201V59.8014C65.4016 58.3692 64.8326 56.9957 63.8199 55.983C62.8072 54.9703 61.4337 54.4014 60.0016 54.4014H16.8016Z" fill="#616161"/>
</svg>
