<svg width="193" height="260" viewBox="0 0 193 260" fill="none" xmlns="http://www.w3.org/2000/svg">
<path d="M48.6593 250.168C47.5393 250.168 46.5313 249.976 45.6353 249.592C44.7393 249.192 44.0353 248.632 43.5233 247.912C43.0113 247.192 42.7553 246.352 42.7553 245.392H45.6833C45.7473 246.112 46.0273 246.704 46.5233 247.168C47.0353 247.632 47.7473 247.864 48.6593 247.864C49.6033 247.864 50.3393 247.64 50.8673 247.192C51.3953 246.728 51.6593 246.136 51.6593 245.416C51.6593 244.856 51.4913 244.4 51.1553 244.048C50.8353 243.696 50.4273 243.424 49.9313 243.232C49.4513 243.04 48.7793 242.832 47.9153 242.608C46.8273 242.32 45.9393 242.032 45.2513 241.744C44.5793 241.44 44.0033 240.976 43.5233 240.352C43.0433 239.728 42.8033 238.896 42.8033 237.856C42.8033 236.896 43.0433 236.056 43.5233 235.336C44.0033 234.616 44.6753 234.064 45.5393 233.68C46.4033 233.296 47.4033 233.104 48.5393 233.104C50.1553 233.104 51.4753 233.512 52.4993 234.328C53.5393 235.128 54.1153 236.232 54.2273 237.64H51.2033C51.1553 237.032 50.8673 236.512 50.3393 236.08C49.8113 235.648 49.1153 235.432 48.2513 235.432C47.4673 235.432 46.8273 235.632 46.3313 236.032C45.8353 236.432 45.5873 237.008 45.5873 237.76C45.5873 238.272 45.7393 238.696 46.0433 239.032C46.3633 239.352 46.7633 239.608 47.2433 239.8C47.7233 239.992 48.3793 240.2 49.2113 240.424C50.3153 240.728 51.2113 241.032 51.8993 241.336C52.6033 241.64 53.1953 242.112 53.6753 242.752C54.1713 243.376 54.4193 244.216 54.4193 245.272C54.4193 246.12 54.1873 246.92 53.7233 247.672C53.2753 248.424 52.6113 249.032 51.7313 249.496C50.8673 249.944 49.8433 250.168 48.6593 250.168ZM73.6557 236.56C74.6957 236.56 75.6237 236.776 76.4397 237.208C77.2717 237.64 77.9197 238.28 78.3837 239.128C78.8637 239.976 79.1037 241 79.1037 242.2V250H76.3917V242.608C76.3917 241.424 76.0957 240.52 75.5037 239.896C74.9117 239.256 74.1037 238.936 73.0797 238.936C72.0557 238.936 71.2397 239.256 70.6317 239.896C70.0397 240.52 69.7437 241.424 69.7437 242.608V250H67.0317V242.608C67.0317 241.424 66.7357 240.52 66.1437 239.896C65.5517 239.256 64.7437 238.936 63.7197 238.936C62.6957 238.936 61.8797 239.256 61.2717 239.896C60.6797 240.52 60.3837 241.424 60.3837 242.608V250H57.6477V236.776H60.3837V238.288C60.8317 237.744 61.3997 237.32 62.0877 237.016C62.7757 236.712 63.5117 236.56 64.2957 236.56C65.3517 236.56 66.2957 236.784 67.1277 237.232C67.9597 237.68 68.5997 238.328 69.0477 239.176C69.4477 238.376 70.0717 237.744 70.9197 237.28C71.7677 236.8 72.6797 236.56 73.6557 236.56ZM81.6732 243.328C81.6732 242 81.9452 240.824 82.4892 239.8C83.0492 238.776 83.8012 237.984 84.7452 237.424C85.7052 236.848 86.7612 236.56 87.9132 236.56C88.9532 236.56 89.8572 236.768 90.6252 237.184C91.4092 237.584 92.0332 238.088 92.4972 238.696V236.776H95.2572V250H92.4972V248.032C92.0332 248.656 91.4012 249.176 90.6012 249.592C89.8012 250.008 88.8892 250.216 87.8652 250.216C86.7292 250.216 85.6892 249.928 84.7452 249.352C83.8012 248.76 83.0492 247.944 82.4892 246.904C81.9452 245.848 81.6732 244.656 81.6732 243.328ZM92.4972 243.376C92.4972 242.464 92.3052 241.672 91.9212 241C91.5532 240.328 91.0652 239.816 90.4572 239.464C89.8492 239.112 89.1932 238.936 88.4892 238.936C87.7852 238.936 87.1292 239.112 86.5212 239.464C85.9132 239.8 85.4172 240.304 85.0332 240.976C84.6652 241.632 84.4812 242.416 84.4812 243.328C84.4812 244.24 84.6652 245.04 85.0332 245.728C85.4172 246.416 85.9132 246.944 86.5212 247.312C87.1452 247.664 87.8012 247.84 88.4892 247.84C89.1932 247.84 89.8492 247.664 90.4572 247.312C91.0652 246.96 91.5532 246.448 91.9212 245.776C92.3052 245.088 92.4972 244.288 92.4972 243.376ZM101.587 238.696C101.987 238.024 102.515 237.504 103.171 237.136C103.843 236.752 104.635 236.56 105.547 236.56V239.392H104.851C103.779 239.392 102.963 239.664 102.403 240.208C101.859 240.752 101.587 241.696 101.587 243.04V250H98.8508V236.776H101.587V238.696ZM111.254 239.008V246.328C111.254 246.824 111.366 247.184 111.59 247.408C111.83 247.616 112.23 247.72 112.79 247.72H114.47V250H112.31C111.078 250 110.134 249.712 109.478 249.136C108.822 248.56 108.494 247.624 108.494 246.328V239.008H106.934V236.776H108.494V233.488H111.254V236.776H114.47V239.008H111.254ZM134.002 233.32V235.552H129.562V250H126.826V235.552H122.362V233.32H134.002ZM151.149 233.32L144.885 250H141.717L135.429 233.32H138.357L143.301 247.192L148.269 233.32H151.149Z" fill="#212121"/>
<g clip-path="url(#clip0_352_2266)">
<path d="M168.874 24.125H24.1243C15.2785 24.125 8.04102 31.3625 8.04102 40.2083V136.708C8.04102 145.554 15.2785 152.792 24.1243 152.792H64.3327V168.875H128.666V152.792H168.874C177.72 152.792 184.877 145.554 184.877 136.708L184.958 40.2083C184.958 31.3625 177.72 24.125 168.874 24.125ZM168.874 136.708H24.1243V40.2083H168.874V136.708Z" fill="#616161"/>
</g>
<defs>
<clipPath id="clip0_352_2266">
<rect width="193" height="193" fill="white"/>
</clipPath>
</defs>
</svg>
