<svg width="248" height="259" viewBox="0 0 248 259" fill="none" xmlns="http://www.w3.org/2000/svg">
<path d="M86.0018 232.32V234.552H81.5618V249H78.8258V234.552H74.3618V232.32H86.0018ZM87.8607 242.328C87.8607 241 88.1327 239.824 88.6767 238.8C89.2367 237.776 89.9887 236.984 90.9327 236.424C91.8927 235.848 92.9487 235.56 94.1007 235.56C95.1407 235.56 96.0447 235.768 96.8127 236.184C97.5967 236.584 98.2207 237.088 98.6847 237.696V235.776H101.445V249H98.6847V247.032C98.2207 247.656 97.5887 248.176 96.7887 248.592C95.9887 249.008 95.0767 249.216 94.0527 249.216C92.9167 249.216 91.8767 248.928 90.9327 248.352C89.9887 247.76 89.2367 246.944 88.6767 245.904C88.1327 244.848 87.8607 243.656 87.8607 242.328ZM98.6847 242.376C98.6847 241.464 98.4927 240.672 98.1087 240C97.7407 239.328 97.2527 238.816 96.6447 238.464C96.0367 238.112 95.3807 237.936 94.6767 237.936C93.9727 237.936 93.3167 238.112 92.7087 238.464C92.1007 238.8 91.6047 239.304 91.2207 239.976C90.8527 240.632 90.6687 241.416 90.6687 242.328C90.6687 243.24 90.8527 244.04 91.2207 244.728C91.6047 245.416 92.1007 245.944 92.7087 246.312C93.3327 246.664 93.9887 246.84 94.6767 246.84C95.3807 246.84 96.0367 246.664 96.6447 246.312C97.2527 245.96 97.7407 245.448 98.1087 244.776C98.4927 244.088 98.6847 243.288 98.6847 242.376ZM107.774 237.744C108.238 237.104 108.87 236.584 109.67 236.184C110.486 235.768 111.39 235.56 112.382 235.56C113.55 235.56 114.606 235.84 115.55 236.4C116.494 236.96 117.238 237.76 117.782 238.8C118.326 239.824 118.598 241 118.598 242.328C118.598 243.656 118.326 244.848 117.782 245.904C117.238 246.944 116.486 247.76 115.526 248.352C114.582 248.928 113.534 249.216 112.382 249.216C111.358 249.216 110.446 249.016 109.646 248.616C108.862 248.216 108.238 247.704 107.774 247.08V249H105.038V231.24H107.774V237.744ZM115.814 242.328C115.814 241.416 115.622 240.632 115.238 239.976C114.87 239.304 114.374 238.8 113.75 238.464C113.142 238.112 112.486 237.936 111.782 237.936C111.094 237.936 110.438 238.112 109.814 238.464C109.206 238.816 108.71 239.328 108.326 240C107.958 240.672 107.774 241.464 107.774 242.376C107.774 243.288 107.958 244.088 108.326 244.776C108.71 245.448 109.206 245.96 109.814 246.312C110.438 246.664 111.094 246.84 111.782 246.84C112.486 246.84 113.142 246.664 113.75 246.312C114.374 245.944 114.87 245.416 115.238 244.728C115.622 244.04 115.814 243.24 115.814 242.328ZM124.04 231.24V249H121.304V231.24H124.04ZM139.752 242.064C139.752 242.56 139.72 243.008 139.656 243.408H129.552C129.632 244.464 130.024 245.312 130.728 245.952C131.432 246.592 132.296 246.912 133.32 246.912C134.792 246.912 135.832 246.296 136.44 245.064H139.392C138.992 246.28 138.264 247.28 137.208 248.064C136.168 248.832 134.872 249.216 133.32 249.216C132.056 249.216 130.92 248.936 129.912 248.376C128.92 247.8 128.136 247 127.56 245.976C127 244.936 126.72 243.736 126.72 242.376C126.72 241.016 126.992 239.824 127.536 238.8C128.096 237.76 128.872 236.96 129.864 236.4C130.872 235.84 132.024 235.56 133.32 235.56C134.568 235.56 135.68 235.832 136.656 236.376C137.632 236.92 138.392 237.688 138.936 238.68C139.48 239.656 139.752 240.784 139.752 242.064ZM136.896 241.2C136.88 240.192 136.52 239.384 135.816 238.776C135.112 238.168 134.24 237.864 133.2 237.864C132.256 237.864 131.448 238.168 130.776 238.776C130.104 239.368 129.704 240.176 129.576 241.2H136.896ZM145.637 238.008V245.328C145.637 245.824 145.749 246.184 145.973 246.408C146.213 246.616 146.613 246.72 147.173 246.72H148.853V249H146.693C145.461 249 144.517 248.712 143.861 248.136C143.205 247.56 142.877 246.624 142.877 245.328V238.008H141.317V235.776H142.877V232.488H145.637V235.776H148.853V238.008H145.637Z" fill="#212121"/>
<path d="M234.676 57.5957H127.162C123.669 57.5957 120.838 60.4272 120.838 63.92V146.136C120.838 149.629 123.669 152.461 127.162 152.461H234.676C238.169 152.461 241 149.629 241 146.136V63.92C241 60.4272 238.169 57.5957 234.676 57.5957Z" stroke="#616161" stroke-width="12.6486"/>
<path d="M139.811 111.353V98.7041" stroke="#616161" stroke-width="12.6486" stroke-linecap="round" stroke-linejoin="round"/>
<path d="M95.5405 7H13.3243C9.8315 7 7 9.8315 7 13.3243V120.838C7 124.331 9.8315 127.162 13.3243 127.162H95.5405C99.0334 127.162 101.865 124.331 101.865 120.838V13.3243C101.865 9.8315 99.0334 7 95.5405 7Z" stroke="#616161" stroke-width="12.6486"/>
<path d="M48.1094 105.027H60.758" stroke="#616161" stroke-width="12.6486" stroke-linecap="round" stroke-linejoin="round"/>
</svg>
