<svg width="248" height="159" viewBox="0 0 248 159" fill="none" xmlns="http://www.w3.org/2000/svg">
<path d="M234.676 57.5957H127.162C123.669 57.5957 120.838 60.4272 120.838 63.92V146.136C120.838 149.629 123.669 152.461 127.162 152.461H234.676C238.169 152.461 241 149.629 241 146.136V63.92C241 60.4272 238.169 57.5957 234.676 57.5957Z" stroke="#616161" stroke-width="12.6486"/>
<path d="M139.811 111.353V98.7041" stroke="#616161" stroke-width="12.6486" stroke-linecap="round" stroke-linejoin="round"/>
<path d="M95.5405 7H13.3243C9.8315 7 7 9.8315 7 13.3243V120.838C7 124.331 9.8315 127.162 13.3243 127.162H95.5405C99.0334 127.162 101.865 124.331 101.865 120.838V13.3243C101.865 9.8315 99.0334 7 95.5405 7Z" stroke="#616161" stroke-width="12.6486"/>
<path d="M48.1094 105.027H60.758" stroke="#616161" stroke-width="12.6486" stroke-linecap="round" stroke-linejoin="round"/>
</svg>
