<svg width="20" height="18" viewBox="0 0 20 18" fill="none" xmlns="http://www.w3.org/2000/svg">
<path d="M20 2.809C19.2483 3.13509 18.4534 3.35066 17.64 3.449C18.4982 2.93632 19.1413 2.12978 19.45 1.179C18.6436 1.65906 17.7608 1.9973 16.84 2.179C16.2245 1.51157 15.405 1.0673 14.5098 0.91585C13.6147 0.764405 12.6945 0.914357 11.8938 1.34219C11.093 1.77002 10.4569 2.45153 10.0852 3.27983C9.71355 4.10814 9.62729 5.03639 9.84 5.919C8.20943 5.83652 6.61444 5.41195 5.15865 4.67286C3.70287 3.93377 2.41885 2.89669 1.39 1.629C1.02914 2.25917 0.839519 2.97282 0.84 3.699C0.83872 4.37338 1.00422 5.03762 1.32176 5.63256C1.63929 6.22751 2.09902 6.73471 2.66 7.109C2.00798 7.09126 1.36989 6.9163 0.8 6.599V6.649C0.804887 7.59389 1.13599 8.50809 1.73731 9.23696C2.33864 9.96584 3.17326 10.4646 4.1 10.649C3.74326 10.7576 3.37287 10.8148 3 10.819C2.74189 10.816 2.48442 10.7926 2.23 10.749C2.49391 11.5618 3.00462 12.2721 3.69107 12.7812C4.37753 13.2902 5.20558 13.5725 6.06 13.589C4.6172 14.7243 2.83588 15.3439 1 15.349C0.665735 15.3501 0.331736 15.3301 0 15.289C1.87443 16.4993 4.05881 17.1417 6.29 17.139C7.82969 17.155 9.35714 16.864 10.7831 16.2831C12.2091 15.7021 13.505 14.8429 14.5952 13.7555C15.6854 12.6681 16.548 11.3744 17.1326 9.9499C17.7172 8.52542 18.012 6.99873 18 5.459C18 5.289 18 5.109 18 4.929C18.7847 4.34381 19.4615 3.62642 20 2.809Z" fill="white"/>
</svg>
